<svg
  width="64"
  height="64"
  viewBox="0 0 64 64"
  fill="none"
  xmlns="http://www.w3.org/2000/svg"
>
  <rect width="64" height="64" rx="12" fill="#FFFCF5" />
  <g transform="translate(5.12 5.12) scale(0.84)">
    <path
      fill="#0A0A0A"
      d="M9.8 0q.1.2.4.3h.9l1.2.1h13.4l1.5.1h1.3l1.5.2h11.8l1.6-.1h1.7l1.6-.1h1l.8-.1h4.8c.5 0 .1.2.5.9v.4l.2 1v12.6l.1.5v3.8l-.1 1v10.2l-.2 1.7v2.1l.1 1V49l.1 1v2.2l.1 1.4v.9l.1.8v8.4l-.2.1h-.2l-.4-.1h-7.6c-.8.2-.8 0-1.5 0h-1l-.6.1H30.6l-1.1.1h-5.3l-1.8-.1h-2.7l-.6.1h-4.3l-1.6.1H9.8v-2.2l.1-1.4v-.6l.3-3.8v-.8l.1-.2-.1-.7V42.4l.1-.4v-4.5l-.1-1.7v-3.7l-.1-.4V16l-.1-1.1v-3.7l-.1-1.5v-3l-.1-1.2zM29 41.8l-.2.4-.2 1.3v.6l-.1.5v.5l-.1 1.3-.1 1.3-.1.5-.1 1.2-.1.6-.1 1-.2.7v1.1l-.3 1.2v.8l-.1 1.7v.7l-.1.9v1.3l-.1 1-.2.6v.4l.4-.2.2.4q.2-.3.2-.7l.2-.5.2-1.3v-.8l.2-.7v-1l.2-1.4v-1.5c.2-.5 0-.3 0-.8l.2-1V51l.1-.8q0-.8.3-1.4V47l.1-.9.1-.7.1-.9.1-.5v-2.3zm-6.2 9.5c-.4-.2-.2.3-.3 1v1.1l-.2 1.5v.7l-.2.8v2.2l-.2.2v.7c0 .7.2.5.1 1v.3q.1.3.5.2h.5l.4.1q.3 0 .4.2c.2.3.3 0 .7 0-.3-.5.3-.4 0-1.2v-.3l-.2-.4v-.3l-.2-.5-.1-.5q0-.3-.3-.7v-1.1l-.2-.5q-.2-.4-.1-.6-.2-.1-.2-.4l-.2-.4V54l-.2-.3.1-.4v-1.6h-.2zv-.1M47 43.6c-.3.2-.5-.4-.5-.1l-.2.7-.3.9v.4q-.4.7-.4 1.3c0 .6-.2.7-.3 1.3q0 .6-.3 1.3l-.2 1.2v.3l-.2.8-.3 1v.2l-.3.9-.2.8-.1.6-.2.7-.2.6-.3 1.3-.1.6-.1.4-.3.9v.5l-.2.4-.2.6c.8 0 .6.3 1.6.2l.4-.3c0-.6.2-.2.4-.9l.1-.7.4-1.2.2-1 .1-.5c.3-1.1.4-.8.5-2.2l.1-.7.1-.5.1-.5v-.3q0-.6.3-1.1l.3-1.1.2-.9.2-.8.2-.9.3-1.3.3-1 .1-.4c.1-.2.6-1.2.5-1.4-.9-.3-.4-.2-1-.1zM16.7 57h-.2q0 .3-.4.2h-.4l-.2-.1h-1.7c-.3.1-.4.8-.5.8l-.3.5-.3.6-.1.3-.3.9-.2.4-.2.5v.3h1.9c.7.1.3 0 1-.1h.7l.6-.2.2.2.2-.8v-1l.4-.7v-.2c-.2-.6-.3-.2-.2-.7l.2-.5zm4.5-14-.2.2c-.3-.2-.1 0-.7 0q-.3 0-.4.4l.1.6-.1.5-.3.7v1.1-.1h.2v.2h-.2v.1l.2.2v.3l-.1.8-.1.7v1.9l-.1 1-.2.4.2.2v1.5l-.1.4v.7l-.1.7v1.2l-.1.7v.5l-.1.6v1.2l-.1.5v.6l.2.1v.3h.3v-.6l.1-.4v-1.5h.1v-1.1l.1-1.5V56c.2-.6 0-1 .2-1.4l.1-.4.2-1.8v-.3l.1-1.2.1-.3.1-1v-.5l.1-.7v-.7l.2-1v-.4c0-.7 0-.6.2-1v-.4l.3-.8.1-.5-.1-.3zm14.1-2.7-.4.1-.6.2-.6.1-.7.2h-.4l-.4.4-.2 1v.4l-.1.9-.2.6-.2 1.2-.2 1.4v2l-.1 1.2v1.5l-.1.7V54l-.1.4-.1.8-.1.7v.5l-.3 1.3v.6l-.1.7-.1.5q-.2.7 0 1.3l.4.2c.4.5.5 0 1 .3q.2-.4.6-.1l.3-.2.4-.4.6-.6.1-.2q.3-.1.4-.4l.6-.8v-.4l.2-.4V57l-.2-1.6v-.2l-.1-.2-.2-.3-.5-1.1c-.4-.2-.1-.5-.4-.8 0-.6 0-.1-.2-.5l-.3-.7v-.5l-.3-1v-3l.1-1.2.2-1v-.4l.3-.9.1-.5V43l.5-.7.3-.2.2-.2.5-.6.3-.2q.5-.1.5-.7zm14.8 16.8-1.3.1h-1c0 .6-.2.5-.3.9 0 .7-.4.7-.4 1.7v.5q-.2 0-.3.3v.3q.7-.1 1.1.1h3.4l.3-.1-.4-.3.3-.4v-2.4l.2-.2-.5-.2-.2-.1h-.2zm-5.6-18.6-1.1.3-.4.2-1.2.2-.8.4-.3.2-.5.3-.7.5-.5.3-.3.2-.2.2-1.4 1.2-.7 1q-.6.7-.9 1.5l-.2.7v.7l-.1.6v.3l-.1.5v1c0 .7 0 .9.3 1.5l.3 1 .5 1 .6 1.3c.3.4.8 1.8.9 2v.9c0 .2.3.6 0 1.3l-.1.5v.3l-.8 1.4-.5 1c.4.1.6-.3.9-.1h1.2l.3-.1.3-.2.5-.5v-.5l.2-.4.2-1.2.1-.3.5-1.8.4-1.8.3-1 .2-.9.3-.7.3-.7.2-.5.1-.6.4-1.6q.4-1 .5-2l.2-1 .2-1q.2-.2 0-.5l-.2-.1v-.1h-.1q-.3.3-.6.2t-.4-.2l-.3.1-.6.2q-.2-.2-.9-.3h-.4v-2.2l.5-.3.4.1h3.3q0-.3.4-.7l.2-.5.1-.5V39c0-.2.4-.3.2-.4zm-27.1 9.6-.3.6-.2.7-.4 1-.1.2q0 .3-.2.4l-.5.9-.2.6-.3 1-.4.4-.1.3v.3q.4.3.6.2h.8q.2.2.4 0h.4v-.2l.2-.6v-2.2l.2-1V50l.3-1.5v-.2zm34.2-6h-.2s-.2.6 0 .7l-.2.4-.2.3v.7l-.2.5-.3 1.2-.2.5v.5l-.2.6v.2l-.2.6-.2.8v.5l-.2.6-.3.9-.1.7v.3l-.2.7-.2.5-.2.7v.5q.3-.3.6-.1h1.5l.5.1q.2 0 .1-.3v-1.4l.1-.4-.1-1v-1.3l.1-.7v-.3c0-1-.2-.6 0-1.6v-1.9l.1-.3v-1.6l.1-.5V43zm-34.8 2-.5.1H16l-1.7.4c-1 0-.6.2-1.3.3q-.3.6-.1 1.2l-.1 2.7c0 .4 0 1.6-.2 2q-.2.5 0 .9c-.4.7 0 .4-.2.9l-.2.6q.3 0 .1.4l-.1.1v.3h.1l.2-.4q.2-.7.5-.9l.2-.5.3-.7.4-.6.2-.5.3-.7.3-.8.3-.7.8-1.6.2-.3.7-1.2q.4-.4.4-1zm9-1.7h-.6l-.1.3H24q-.3 0-.1 1V45l.4 1.9v.3l.1 1.2v.8l.1.4q0 .5.3.8v1.2q0 .8.3 1.2l.1-.1q0-.9.2-1.6v-.9l.2-2v-1.6l.1-1v-.4l.1-1.3v-1.2zm13 1.8H40l.8.2.6.4.5.6q.2.6 0 1.2c0 .6.1.2 0 .8l-.1 1q0 .4-.2.7l-.5 1c-.3.5-.3.4-.9.9l-.6.3-.8.3h-.3l-.2.1-.7-.5-.4-.1V51q-.3 0-.4-.4c-.5-.3 0-.2-.4-.5v-.2l-.2-.1v-2.3l.1-.3v-.4l.4-1.2q.6-1 2-1.4m.3 2-.3.2q-.2 0-.3.3-.4.6-.4 1v1l.2.3q0 .4.5.4l.8-.3.3-.3.1-.6v-.6q.3-.3 0-1h-.2l-.2-.2zm-26.8 2.1H12zm6.6-18.8h-.2c-.4.4-.4.1-.7.5l-.2.2q0 .2-.3.2c-.5.4-1.6 1.4-2 2-1.2 1.1-1.7 1-2 1.2q-.7 1-.6 2.4v3.2l-.2 1.3v.6l.1.4v.1c.4.3 1.5.2 2 .1l1.3-.2h.6l.8-.3h.4q.8-.3 1.7-.3l1.2-.3h.7l1.5-.4 1.2-.2 1.1-.1c.7 0 .3-.4.9-.3h.8l.2-.1v.1l.2.2.2-.1-.2-.5-.2-.1-.3-.4-.7-.7-.2-.3q-.3-.5-.7-.6 0-.3-.2-.4l-.3-.2-.2-.3-.5-.6-.2-.3-.4-.4-.4-.4-.2-.2-.5-.6-.5-.6-.4-.4-.4-.5-.3-.4-.5-.7-.5-.4c-.4-.4-.2-.6-.5-.8-.5-.3-.2-.4-.4-.4m30 8.6h-1l-.1 1-.2.6-.2.4-.3.5-.3.7.5.1h1.2l.2-.1h.1c.5-.4.3-.7.6-.9l-.1-.2v-.7l.1-.5.1-.5h.2v-.2l-.2-.2zm-20.3-6.5v.5l-.2.2-.7.5q-.8.4-1.3 1.3l.2.3.7.8.7.7.4.7.3.2.7.8.3.3.6 1 .2.2.9-.4h.5l.3-.2q.5 0 .9-.2c.4-.2.7.2 1.1-.2L34 38l-.3-.5-.7-.6q-.1-.4-.4-.7l-.3-.4-.3-.3-.2-.3-.4-.4-.3-.4-.5-.4-.4-.6q0-.2-.2-.2 0-.3-.3-.5c-.5-.2-.6-1-1-1M13.3 2.8V3l.2.1-.3.2-.2.2v.2h-.1c-.2.5 0 .4 0 1V8l.2.2-.2.1v15.3l.1 3.5V29l-.1.5v.3l.1.3v.5q-.4.4-.3.8.5.1.7-.4l.2-.2h.4c.2-.1.4-.7.4-.8l.6-.5.5-.4.6-.4 1.2-1.3.2-.3.6-.5 1-.7v-.2c.3.2.5-.2.6.2l.5.4c.3.5.4.3.5.6l.4.7.3.3.5.5 1 1 .4.6.3.6.5.6.3.5c.7-.2.4 0 1-.3l.5-.5.6-.5.7-.7 1.4-1.2h.2c.5.1.5.3 1 .3l1 1.3 1.2 1.4.2.2.5.6.2.3.6.7.3.5.6.7 1.3 1.4.8 1q.3.4.7.6l.4-.2h.5l.7-.2H40l1-.2h.8l.8-.2h.3l1-.3 1.2-.2.6-.1 1-.3h1v-.2h-.1l-.4-.2-.2-.2c-.3-.3-.6.2-1 .2l-.2.3v-.1q.1-.1-.4 0h-1l-.6.2h-.4q0-.2-.2-.3c-.2-.2-.5-1.2-.6-1.4q.2-.3.5-.3l.7-.2h.7v-.1l-.3-.2v-.2q-.5-.1-.4-.3h-.2l-1 .3h-.9c-.4.2-.2 0-1 0-.7.3-.5 0-1.2.2h-.6v-.9l-.2-1.1v-.2l.6.1h2.3l.1-.2c.2-.2-.3-.2-.3-.3q0-.4-.3-.4l-.4-.1h-2.9l-.6-.1-.6-.2-1.2-.1v-2.5l.5.3h2c.6 0 1.4.5 2.3 0l-.1-.4-.1-.4-.4-.2h-.4c-.2-.1-.8 0-.8 0l-.9-.2h-.3l-.8-.2h-1.8q-.2 0-.3-.2-.3-.2-.4-.6v-2c.5 0 .5.3 1 .3l.8.1q.5.2 1 .1l.8.1c.3 0 1.4.5 2.1.4l.1-.6v-.3h.2l-.2-.3-.5-.2h-1.9l-1-.2h-.6l-1.2-.1h-.7v-1.9c.2-.6.3-.6.6-1l.7.3h.5l.8.2 1.9.3c.5 0 1 .3 1.5.1h.4q0-.4.2-.7-.1-.4-.6-.4H39l-1-.3-1.2-.2-.1-.1-.7-.2-.5-.2h-.2v-.5c.1-1 .3-.8.5-1.7q.3 0 .4.2l.5.2h.9l1.2.2 1.4.4.5.1h.2v-.9h.3q0-.2-.3-.3l-.1-.1h-.6l-1-.2h-.6l-1-.2h-.8v-1.1l.2-.3.1-.9c.7.2.6.3 1.3.4h3c-.2-.5 0-.6-.4-.8h-1l-1-.2-.5.1H38v-.4q-.3-.4-.2-1V11h.2q.5.3 1.3.2h.9q.5-.2 1-.1v-.3q-.7-.6-1.5-.5H39l-.6.1V9.3l-.1-.7h.3l.2-.1h.2l.4-.1h.2q.2-.2-.1-.8l-.5-.4-.3-.6v-.4q.5-.5 1.2-.7l.3.4.7.7c.3.2-.1.3.3.7.2.3 0 .5.2.4h.3l.8-.5c.6-.3.3-.5.7-.7l.1.2.2.3c.5.3 0 .7.6.9q.2.4 0 .6l-.4.2-.4.3-.5.6q-.2.3-.1.5.2.2.5 0h.4l1.1-.5.8-.4q0-.2.3 0c.5.7.4.6.7 1.3l.3.4q0 .2-.3.3l-.6.3-.3.1-.5.2q-.6.2-1 .6-.5-.1-.7.4l.2.3v.3l.2.1-.2.5.6-.3.6-.2.6-.2 1.9-.6q.5-.3.6-.2l.2.6.4 1.1.4.6-.2.2-1.2.4q-.3 0-.5.2l-3.2.6-.4.4h-.2v.9h.5l.4-.1.6-.2 1-.1h.7l.2-.2 1-.3 1-.3h.2v.2l.4.7.3 1c.1 0 .1.5-.1.5h-1l-.4.1-1.7.4-.3.1-1.7.3-.5.1c-.6.4-.5.1-.8.4-.4.2-.1.2-.6.5l-.1.2v.1c-.1 0 .3.3.8 0l.8-.2.7-.1.9-.2.4-.1.4-.2 1.1-.2.9-.3.4-.1.2.7c.1.8.3.5 0 1v.7q-1 0-1.8.4l-.8.2h-.2l-.4.1-.3.1-.5.2h-.4l-.6.2-.3.1-.4.1H43q-.1-.1-.2.2h-.3l-.5.4h-.2v.2l.2.3c1 .2.7-.2 1-.1l.6-.2h.4l1-.4 1.5-.4.5-.1.5-.2.5-.2.4.5.5 1.4-.2.4q0 .3-.4.3l-1.3.2h-.3l-.4.3c-.6.2-.5 0-.7.2l-.5.2-1 .1-.8.1q-.6 0-1 .4v.4l.1.3h1.2l.5-.3 1-.2.4-.2.6-.2 1-.3.2-.1q.2 0 .1.3l.7 1.6v.3h-.3l-.2.1h-.4l-.4.2-.8.3c-.3.4-.3.1-.6.3q-.4.3-1 .3l-.7.2c-.2 0 0 .5.4.5h.3l.7-.2h.4l.3-.2v-.2c.4 0 0 .1.4 0l.9-.3.1.1.4.7.6.4.1.3-.2.2-.5.2q-.2 0-.3.2l-1 .5-.2.2v.3h.6l1.1-.5q.4-.1.5-.6h.4q.4.6 1 1v.7l-.3.2-.3.2-.1.2.5.1q.1.5.7.5l.1.1.6.3h.1l.1-.5.2-.5v-14q.2-1 .1-2v-1.2l.1-1.4v-4.3l.1-3.2V4.4q-.2-.4 0-.8c0-.3-.4 0-.9-.1h-1.4l-.2-.1h-.2l-.1-.1h-9.4c-.4.2-.3 0-.6 0H26c-.7-.1-.1-.2-1.3-.2h-1.2c-.4.2-.1 0-.7 0h-.5l-.4.1h-3.2l-.4-.1h-4.5L14 3zm8.6 2.3h1l1.3.1h1.1c.7 0 .9 0 1.4.3l.6.2c.5.5.4 0 1.2.6l1.5.8.7.4.5.4q.2 0 .3.4l.3.3.7.9v.4L33 11l.3 1 .2.9c0 1 .2 2.6-.1 3.6l-.8 1.9-.5.7-.5.8q-.1.3-.4.5c-.8 1-.8 1-2 1.5l-.3.1-.5.3-.7.3h-.3l-.5.2h-.4l-.4.2c-1.3.1-.5.3-2.2.2h-1l-.4-.1h-.3c-.5-.4-.6-.2-1.3-.5l-1.1-.5-.3-.2-.9-.6-.5-.4-.6-.7-.6-.5c0-.2-.7-1-.7-1l-.4-1-.4-1.4-.2-.8-.2-2.1V12q.2-1.2 1-2.4l.8-1.3.9-1 .9-.8.4-.3.8-.4.6-.4 1-.3zm1.8 2.6h-.4l-.5.1q-.1.2-.4.1l-1 .4-.8.5h-.3q0 .2-.3.3L18.5 11l-.4 1-.3 1.5.2 1.8v.4q.2.8.6 1.4l.5 1 .6.7.4.2.4.4c1 .8 1.5.8 2.7 1.2h.5v-.2q0-.6-.5-.9l-.6-.7c-.7-1-.3-.4-.8-1.4l-.2-1-.3-1v-.7c-.1-.3-.1-1.3 0-1.6l.2-1.1c.2-.7.5-2 .9-2.6l.7-.9c.3-.6.5-.1.6-.8m4.2.9q-.4-.1-.7.2l-.3.2q0 .3-.3.2v.3c-.5-.1-1.2.5-1.5.9a4 4 0 0 0-1 2l-.1.5v1a7 7 0 0 0 1.2 3.9l.6.7c.6.7.8.5 1 .7l.2.3.5-.1q.3 0 .4-.3l.6-.6.6-.6.2-.3.5-.7.4-.8.4-1.2v-1.2l-.1-1-.2-1-.4-.8-.3-.6-.8-1c-.5 0-.2-.5-.9-.7m25.2 5.8v-.1zM41.4 2.7h.1-.2zM34 1h.2zm4.2 0 .1-.1z"
    />
  </g>
</svg>
