<svg
  xmlns="http://www.w3.org/2000/svg"
  viewBox="0 0 64 64"
  role="img"
  aria-label="Bluesky"
>
  <defs>
    <linearGradient id="bsky-bg" x1="0" y1="0" x2="0" y2="1">
      <stop offset="0" stop-color="#7ec0ff" />
      <stop offset="1" stop-color="#1185fe" />
    </linearGradient>
  </defs>
  <rect width="64" height="64" rx="14" fill="url(#bsky-bg)" />
  <path
    fill="#ffffff"
    d="M32 24c-3.6-6.4-9.6-10.5-13.5-10.5-3 0-4.5 2.4-4.5 5.6 0 3 1 8.6 2.1 11.7 1.5 4.4 4.4 5.4 9.4 5 .5 0 .9 0 1.3-.1-.4.1-.8.2-1.3.3-7.6 1.6-9.8 5-5.3 12.6.6 1 4.5 4.4 8.4-3.4l3.4-6.7 3.4 6.7c3.9 7.8 7.8 4.4 8.4 3.4 4.5-7.6 2.3-11-5.3-12.6-.5-.1-.9-.2-1.3-.3.4 0 .8.1 1.3.1 5 .4 7.9-.6 9.4-5 1.1-3.1 2.1-8.7 2.1-11.7 0-3.2-1.5-5.6-4.5-5.6C41.6 13.5 35.6 17.6 32 24z"
  />
</svg>
