<svg
  xmlns="http://www.w3.org/2000/svg"
  viewBox="0 0 64 64"
  role="img"
  aria-label="Deer Social"
>
  <defs>
    <linearGradient id="deer-bg" x1="0" y1="0" x2="0" y2="1">
      <stop offset="0" stop-color="#2f5a3a" />
      <stop offset="1" stop-color="#16331f" />
    </linearGradient>
  </defs>
  <rect width="64" height="64" rx="14" fill="url(#deer-bg)" />
  <g
    fill="#dcc8a0"
    stroke="#dcc8a0"
    stroke-linejoin="round"
    stroke-linecap="round"
  >
    <path
      d="M32 50c-6 0-10-4.5-10-10v-7c0-3.5 2-7 4-9 1-1 1.5-2 1-4-1-3 0-5 2-5 1 0 2 .8 3 2 1-1.2 2-2 3-2 2 0 3 2 2 5-.5 2 0 3 1 4 2 2 4 5.5 4 9v7c0 5.5-4 10-10 10z"
    />
    <g fill="none" stroke-width="2.6">
      <path d="M22 28c-1-3-3-5-5-7m5 7c-2-1-4-1-6-3m6 3c-1-2-1-4-2-6" />
      <path d="M42 28c1-3 3-5 5-7m-5 7c2-1 4-1 6-3m-6 3c1-2 1-4 2-6" />
    </g>
  </g>
  <g fill="#16331f">
    <circle cx="27" cy="38" r="1.6" />
    <circle cx="37" cy="38" r="1.6" />
    <ellipse cx="32" cy="44.5" rx="2" ry="1.3" />
  </g>
</svg>
