<svg width="550" height="250" viewBox="0 0 550 250" fill="none" xmlns="http://www.w3.org/2000/svg">
<path d="M223.344 67.336C221.589 67.336 220.152 67.0187 219.032 66.384C217.912 65.7307 216.988 64.9 216.26 63.892L217.968 62.492C218.733 63.444 219.536 64.1533 220.376 64.62C221.235 65.0867 222.252 65.32 223.428 65.32C224.847 65.32 225.929 64.9933 226.676 64.34C227.423 63.6867 227.796 62.772 227.796 61.596C227.796 60.644 227.525 59.9067 226.984 59.384C226.443 58.8427 225.5 58.46 224.156 58.236L221.972 57.872C221.02 57.704 220.217 57.452 219.564 57.116C218.929 56.78 218.416 56.3787 218.024 55.912C217.632 55.4267 217.352 54.904 217.184 54.344C217.016 53.7653 216.932 53.168 216.932 52.552C216.932 50.76 217.52 49.4067 218.696 48.492C219.872 47.5773 221.459 47.12 223.456 47.12C225.024 47.12 226.34 47.3813 227.404 47.904C228.487 48.4267 229.355 49.164 230.008 50.116L228.356 51.544C227.815 50.8347 227.161 50.256 226.396 49.808C225.631 49.36 224.641 49.136 223.428 49.136C222.103 49.136 221.085 49.416 220.376 49.976C219.667 50.536 219.312 51.376 219.312 52.496C219.312 53.3733 219.573 54.092 220.096 54.652C220.637 55.1933 221.599 55.5853 222.98 55.828L225.08 56.192C226.032 56.36 226.835 56.612 227.488 56.948C228.141 57.284 228.664 57.6853 229.056 58.152C229.467 58.6187 229.756 59.1413 229.924 59.72C230.092 60.2987 230.176 60.9053 230.176 61.54C230.176 63.3507 229.579 64.7693 228.384 65.796C227.208 66.8227 225.528 67.336 223.344 67.336ZM241.085 49.36C240.432 49.36 239.974 49.2293 239.713 48.968C239.452 48.688 239.321 48.3427 239.321 47.932V47.484C239.321 47.0733 239.452 46.7373 239.713 46.476C239.974 46.196 240.432 46.056 241.085 46.056C241.738 46.056 242.196 46.196 242.457 46.476C242.718 46.7373 242.849 47.0733 242.849 47.484V47.932C242.849 48.3427 242.718 48.688 242.457 48.968C242.196 49.2293 241.738 49.36 241.085 49.36ZM234.757 65.096H239.965V54.456H234.757V52.552H242.205V65.096H247.077V67H234.757V65.096ZM264.286 68.652C264.286 70.108 263.679 71.1813 262.466 71.872C261.253 72.5813 259.433 72.936 257.006 72.936C254.673 72.936 252.993 72.628 251.966 72.012C250.958 71.396 250.454 70.5093 250.454 69.352C250.454 68.568 250.659 67.9613 251.07 67.532C251.481 67.1027 252.059 66.7853 252.806 66.58V66.244C252.395 66.0387 252.078 65.7773 251.854 65.46C251.63 65.1427 251.518 64.7413 251.518 64.256C251.518 63.5093 251.761 62.9493 252.246 62.576C252.75 62.2027 253.375 61.9227 254.122 61.736V61.624C253.226 61.232 252.526 60.6533 252.022 59.888C251.537 59.1227 251.294 58.2267 251.294 57.2C251.294 56.472 251.425 55.8 251.686 55.184C251.947 54.568 252.321 54.0453 252.806 53.616C253.31 53.168 253.907 52.8227 254.598 52.58C255.289 52.3373 256.054 52.216 256.894 52.216C257.977 52.216 258.929 52.412 259.75 52.804V52.552C259.75 51.992 259.881 51.5253 260.142 51.152C260.403 50.7787 260.851 50.592 261.486 50.592H264.146V52.552H260.898V53.532C261.421 53.98 261.822 54.512 262.102 55.128C262.382 55.744 262.522 56.4347 262.522 57.2C262.522 57.928 262.382 58.6 262.102 59.216C261.841 59.832 261.467 60.364 260.982 60.812C260.497 61.2413 259.899 61.5773 259.19 61.82C258.499 62.0627 257.734 62.184 256.894 62.184C256.651 62.184 256.418 62.1747 256.194 62.156C255.97 62.1373 255.746 62.1093 255.522 62.072C255.298 62.1093 255.065 62.1747 254.822 62.268C254.579 62.3427 254.355 62.4547 254.15 62.604C253.945 62.7347 253.777 62.8933 253.646 63.08C253.515 63.2667 253.45 63.4813 253.45 63.724C253.45 64.1533 253.665 64.4427 254.094 64.592C254.523 64.7227 255.083 64.788 255.774 64.788H258.966C260.833 64.788 262.186 65.1427 263.026 65.852C263.866 66.5427 264.286 67.476 264.286 68.652ZM262.186 68.764C262.186 68.1853 261.953 67.7187 261.486 67.364C261.019 67.028 260.207 66.86 259.05 66.86H254.038C253.067 67.252 252.582 67.9053 252.582 68.82C252.582 69.4547 252.834 69.996 253.338 70.444C253.842 70.9107 254.682 71.144 255.858 71.144H258.042C259.349 71.144 260.366 70.9387 261.094 70.528C261.822 70.136 262.186 69.548 262.186 68.764ZM256.894 60.448C258.014 60.448 258.835 60.1867 259.358 59.664C259.899 59.1413 260.17 58.4507 260.17 57.592V56.78C260.17 55.9213 259.899 55.24 259.358 54.736C258.835 54.2133 258.014 53.952 256.894 53.952C255.774 53.952 254.953 54.2133 254.43 54.736C253.907 55.24 253.646 55.9213 253.646 56.78V57.592C253.646 58.4507 253.907 59.1413 254.43 59.664C254.953 60.1867 255.774 60.448 256.894 60.448ZM268.111 67V52.552H270.351V54.904H270.463C270.613 54.5493 270.799 54.2133 271.023 53.896C271.247 53.56 271.518 53.2707 271.835 53.028C272.171 52.7853 272.563 52.5893 273.011 52.44C273.459 52.2907 273.982 52.216 274.579 52.216C276.091 52.216 277.305 52.7013 278.219 53.672C279.134 54.624 279.591 55.9773 279.591 57.732V67H277.351V58.124C277.351 56.7987 277.062 55.8187 276.483 55.184C275.905 54.5307 275.055 54.204 273.935 54.204C273.487 54.204 273.049 54.26 272.619 54.372C272.19 54.484 271.807 54.652 271.471 54.876C271.135 55.1 270.865 55.3893 270.659 55.744C270.454 56.0987 270.351 56.5093 270.351 56.976V67H268.111ZM286.496 59.664V57.312H294.616V59.664H286.496ZM308.241 49.36C307.588 49.36 307.131 49.2293 306.869 48.968C306.608 48.688 306.477 48.3427 306.477 47.932V47.484C306.477 47.0733 306.608 46.7373 306.869 46.476C307.131 46.196 307.588 46.056 308.241 46.056C308.895 46.056 309.352 46.196 309.613 46.476C309.875 46.7373 310.005 47.0733 310.005 47.484V47.932C310.005 48.3427 309.875 48.688 309.613 48.968C309.352 49.2293 308.895 49.36 308.241 49.36ZM301.913 65.096H307.121V54.456H301.913V52.552H309.361V65.096H314.233V67H301.913V65.096ZM318.478 67V52.552H320.718V54.904H320.83C320.98 54.5493 321.166 54.2133 321.39 53.896C321.614 53.56 321.885 53.2707 322.202 53.028C322.538 52.7853 322.93 52.5893 323.378 52.44C323.826 52.2907 324.349 52.216 324.946 52.216C326.458 52.216 327.672 52.7013 328.586 53.672C329.501 54.624 329.958 55.9773 329.958 57.732V67H327.718V58.124C327.718 56.7987 327.429 55.8187 326.85 55.184C326.272 54.5307 325.422 54.204 324.302 54.204C323.854 54.204 323.416 54.26 322.986 54.372C322.557 54.484 322.174 54.652 321.838 54.876C321.502 55.1 321.232 55.3893 321.026 55.744C320.821 56.0987 320.718 56.5093 320.718 56.976V67H318.478ZM350.153 52.552H352.141L353.793 65.04H354.045L356.508 52.552H358.973L361.437 65.04H361.689L363.341 52.552H365.273L363.061 67H360.149L357.853 54.904H357.629L355.277 67H352.365L350.153 52.552ZM375.398 49.36C374.744 49.36 374.287 49.2293 374.026 48.968C373.764 48.688 373.634 48.3427 373.634 47.932V47.484C373.634 47.0733 373.764 46.7373 374.026 46.476C374.287 46.196 374.744 46.056 375.398 46.056C376.051 46.056 376.508 46.196 376.77 46.476C377.031 46.7373 377.162 47.0733 377.162 47.484V47.932C377.162 48.3427 377.031 48.688 376.77 48.968C376.508 49.2293 376.051 49.36 375.398 49.36ZM369.07 65.096H374.278V54.456H369.07V52.552H376.518V65.096H381.39V67H369.07V65.096ZM391.991 67C390.889 67 390.077 66.692 389.555 66.076C389.051 65.46 388.799 64.6667 388.799 63.696V54.456H383.983V52.552H387.567C388.052 52.552 388.388 52.4587 388.575 52.272C388.78 52.0667 388.883 51.7213 388.883 51.236V47.456H391.039V52.552H397.619V54.456H391.039V65.096H397.619V67H391.991ZM402.424 46.28H404.664V54.904H404.776C404.925 54.5493 405.112 54.2133 405.336 53.896C405.56 53.56 405.83 53.2707 406.148 53.028C406.484 52.7853 406.876 52.5893 407.324 52.44C407.772 52.2907 408.294 52.216 408.892 52.216C410.404 52.216 411.617 52.7013 412.532 53.672C413.446 54.624 413.904 55.9773 413.904 57.732V67H411.664V58.124C411.664 56.7987 411.374 55.8187 410.796 55.184C410.217 54.5307 409.368 54.204 408.248 54.204C407.8 54.204 407.361 54.26 406.932 54.372C406.502 54.484 406.12 54.652 405.784 54.876C405.448 55.1 405.177 55.3893 404.972 55.744C404.766 56.0987 404.664 56.5093 404.664 56.976V67H402.424V46.28ZM446.334 52.552H448.574L441.406 70.164C441.238 70.5747 441.051 70.9293 440.846 71.228C440.64 71.5453 440.398 71.7973 440.118 71.984C439.838 72.1893 439.502 72.3387 439.11 72.432C438.718 72.544 438.251 72.6 437.71 72.6H435.582V70.696H438.942L440.566 66.72L434.742 52.552H437.038L439.474 58.6L441.63 64.088H441.742L443.898 58.6L446.334 52.552ZM458.447 67.336C457.439 67.336 456.524 67.1587 455.703 66.804C454.9 66.4493 454.21 65.9453 453.631 65.292C453.071 64.62 452.642 63.8267 452.343 62.912C452.044 61.9787 451.895 60.9333 451.895 59.776C451.895 58.6373 452.044 57.6013 452.343 56.668C452.642 55.7347 453.071 54.9413 453.631 54.288C454.21 53.616 454.9 53.1027 455.703 52.748C456.524 52.3933 457.439 52.216 458.447 52.216C459.455 52.216 460.36 52.3933 461.163 52.748C461.984 53.1027 462.675 53.616 463.235 54.288C463.814 54.9413 464.252 55.7347 464.551 56.668C464.85 57.6013 464.999 58.6373 464.999 59.776C464.999 60.9333 464.85 61.9787 464.551 62.912C464.252 63.8267 463.814 64.62 463.235 65.292C462.675 65.9453 461.984 66.4493 461.163 66.804C460.36 67.1587 459.455 67.336 458.447 67.336ZM458.447 65.404C459.698 65.404 460.706 65.0307 461.471 64.284C462.236 63.5373 462.619 62.38 462.619 60.812V58.74C462.619 57.172 462.236 56.0147 461.471 55.268C460.706 54.5213 459.698 54.148 458.447 54.148C457.196 54.148 456.188 54.5213 455.423 55.268C454.658 56.0147 454.275 57.172 454.275 58.74V60.812C454.275 62.38 454.658 63.5373 455.423 64.284C456.188 65.0307 457.196 65.404 458.447 65.404ZM478.652 64.648H478.54C478.391 65.0027 478.204 65.348 477.98 65.684C477.756 66.0013 477.476 66.2813 477.14 66.524C476.823 66.7667 476.44 66.9627 475.992 67.112C475.544 67.2613 475.021 67.336 474.424 67.336C472.912 67.336 471.699 66.86 470.784 65.908C469.869 64.9373 469.412 63.5747 469.412 61.82V52.552H471.652V61.428C471.652 62.7533 471.941 63.7427 472.52 64.396C473.099 65.0307 473.948 65.348 475.068 65.348C475.516 65.348 475.955 65.292 476.384 65.18C476.813 65.068 477.196 64.9 477.532 64.676C477.868 64.452 478.139 64.172 478.344 63.836C478.549 63.4813 478.652 63.0613 478.652 62.576V52.552H480.892V67H478.652V64.648ZM485.781 65.096H490.009V54.456H485.781V52.552H492.249V56.192H492.389C492.688 55.0533 493.248 54.1667 494.069 53.532C494.909 52.8787 495.973 52.552 497.261 52.552H499.277V54.792H496.561C495.273 54.792 494.228 55.1653 493.425 55.912C492.641 56.6587 492.249 57.6387 492.249 58.852V65.096H497.849V67H485.781V65.096ZM235.88 129L233.768 120.936H224.6L222.536 129H215.24L224.312 95.496H234.488L243.56 129H235.88ZM229.4 102.456H229.016L225.752 115.128H232.664L229.4 102.456ZM260.101 129C257.541 129 255.637 128.328 254.389 126.984C253.141 125.64 252.517 123.928 252.517 121.848V109.752H245.797V104.232H250.165C251.221 104.232 251.973 104.024 252.421 103.608C252.869 103.192 253.093 102.424 253.093 101.304V95.496H259.621V104.232H269.269V109.752H259.621V123.48H269.269V129H260.101ZM274.003 129V104.232H279.715V107.88H280.051C280.435 106.728 280.979 105.736 281.683 104.904C282.419 104.072 283.443 103.656 284.755 103.656C287.155 103.656 288.627 105.064 289.171 107.88H289.459C289.651 107.304 289.891 106.76 290.179 106.248C290.467 105.736 290.819 105.288 291.235 104.904C291.651 104.52 292.147 104.216 292.723 103.992C293.299 103.768 293.971 103.656 294.739 103.656C298.195 103.656 299.923 106.2 299.923 111.288V129H294.211V112.008C294.211 110.856 294.003 110.056 293.587 109.608C293.203 109.128 292.691 108.888 292.051 108.888C291.443 108.888 290.915 109.096 290.467 109.512C290.051 109.896 289.843 110.504 289.843 111.336V129H284.083V112.008C284.083 110.856 283.891 110.056 283.507 109.608C283.155 109.128 282.659 108.888 282.019 108.888C281.379 108.888 280.835 109.096 280.387 109.512C279.939 109.896 279.715 110.504 279.715 111.336V129H274.003ZM315.744 129.576C313.824 129.576 312.096 129.288 310.56 128.712C309.024 128.104 307.712 127.24 306.624 126.12C305.568 125 304.752 123.64 304.176 122.04C303.6 120.44 303.312 118.632 303.312 116.616C303.312 114.6 303.6 112.792 304.176 111.192C304.752 109.592 305.568 108.232 306.624 107.112C307.712 105.992 309.024 105.144 310.56 104.568C312.096 103.96 313.824 103.656 315.744 103.656C317.664 103.656 319.392 103.96 320.928 104.568C322.464 105.144 323.76 105.992 324.816 107.112C325.904 108.232 326.736 109.592 327.312 111.192C327.888 112.792 328.176 114.6 328.176 116.616C328.176 118.632 327.888 120.44 327.312 122.04C326.736 123.64 325.904 125 324.816 126.12C323.76 127.24 322.464 128.104 320.928 128.712C319.392 129.288 317.664 129.576 315.744 129.576ZM315.744 124.296C317.344 124.296 318.592 123.8 319.488 122.808C320.384 121.816 320.832 120.408 320.832 118.584V114.648C320.832 112.824 320.384 111.416 319.488 110.424C318.592 109.432 317.344 108.936 315.744 108.936C314.144 108.936 312.896 109.432 312 110.424C311.104 111.416 310.656 112.824 310.656 114.648V118.584C310.656 120.408 311.104 121.816 312 122.808C312.896 123.8 314.144 124.296 315.744 124.296ZM344.237 129.576C341.485 129.576 339.085 129.16 337.037 128.328C335.021 127.496 333.501 126.36 332.477 124.92L336.461 121.224C337.421 122.28 338.541 123.112 339.821 123.72C341.133 124.296 342.621 124.584 344.285 124.584C345.693 124.584 346.797 124.376 347.597 123.96C348.397 123.512 348.797 122.84 348.797 121.944C348.797 121.24 348.525 120.76 347.981 120.504C347.437 120.216 346.685 119.992 345.725 119.832L341.741 119.208C340.621 119.048 339.581 118.808 338.621 118.488C337.661 118.136 336.829 117.672 336.125 117.096C335.421 116.52 334.861 115.816 334.445 114.984C334.029 114.152 333.821 113.144 333.821 111.96C333.821 109.368 334.813 107.336 336.797 105.864C338.781 104.392 341.565 103.656 345.149 103.656C347.581 103.656 349.645 103.992 351.341 104.664C353.069 105.304 354.445 106.232 355.469 107.448L351.917 111.48C351.181 110.68 350.237 110.008 349.085 109.464C347.933 108.92 346.541 108.648 344.909 108.648C342.157 108.648 340.781 109.48 340.781 111.144C340.781 111.88 341.053 112.392 341.597 112.68C342.141 112.936 342.893 113.144 343.853 113.304L347.789 113.928C348.909 114.088 349.949 114.344 350.909 114.696C351.869 115.016 352.701 115.464 353.405 116.04C354.141 116.616 354.717 117.32 355.133 118.152C355.549 118.984 355.757 119.992 355.757 121.176C355.757 123.768 354.749 125.816 352.733 127.32C350.749 128.824 347.917 129.576 344.237 129.576ZM361.738 104.232H368.842V108.744H369.178C369.786 107.272 370.666 106.056 371.818 105.096C372.97 104.136 374.538 103.656 376.522 103.656C377.898 103.656 379.146 103.912 380.266 104.424C381.418 104.936 382.394 105.72 383.194 106.776C384.026 107.832 384.666 109.176 385.114 110.808C385.594 112.44 385.834 114.376 385.834 116.616C385.834 118.856 385.594 120.792 385.114 122.424C384.666 124.056 384.026 125.4 383.194 126.456C382.394 127.512 381.418 128.296 380.266 128.808C379.146 129.32 377.898 129.576 376.522 129.576C374.538 129.576 372.97 129.112 371.818 128.184C370.666 127.224 369.786 125.992 369.178 124.488H368.842V138.6H361.738V104.232ZM373.45 124.056C375.05 124.056 376.282 123.576 377.146 122.616C378.01 121.624 378.442 120.264 378.442 118.536V114.696C378.442 112.968 378.01 111.624 377.146 110.664C376.282 109.672 375.05 109.176 373.45 109.176C372.202 109.176 371.114 109.48 370.186 110.088C369.29 110.696 368.842 111.656 368.842 112.968V120.264C368.842 121.576 369.29 122.536 370.186 123.144C371.114 123.752 372.202 124.056 373.45 124.056ZM390.808 93.48H397.912V108.744H398.2C398.488 108.04 398.84 107.384 399.256 106.776C399.672 106.168 400.168 105.64 400.744 105.192C401.352 104.712 402.04 104.344 402.808 104.088C403.608 103.8 404.504 103.656 405.496 103.656C406.68 103.656 407.768 103.864 408.76 104.28C409.752 104.664 410.6 105.256 411.304 106.056C412.008 106.856 412.552 107.832 412.936 108.984C413.352 110.136 413.56 111.464 413.56 112.968V129H406.456V113.928C406.456 110.728 405.064 109.128 402.28 109.128C401.736 109.128 401.192 109.208 400.648 109.368C400.136 109.496 399.672 109.72 399.256 110.04C398.84 110.328 398.504 110.696 398.248 111.144C398.024 111.592 397.912 112.12 397.912 112.728V129H390.808V93.48ZM431.541 129.576C427.381 129.576 424.229 128.424 422.085 126.12C419.941 123.816 418.869 120.68 418.869 116.712C418.869 114.696 419.141 112.888 419.685 111.288C420.261 109.656 421.061 108.28 422.085 107.16C423.141 106.008 424.405 105.144 425.877 104.568C427.381 103.96 429.061 103.656 430.917 103.656C432.773 103.656 434.437 103.96 435.909 104.568C437.381 105.144 438.629 105.976 439.653 107.064C440.677 108.152 441.461 109.48 442.005 111.048C442.581 112.584 442.869 114.312 442.869 116.232V118.344H425.925V118.776C425.925 120.376 426.421 121.672 427.413 122.664C428.405 123.624 429.861 124.104 431.781 124.104C433.253 124.104 434.517 123.832 435.573 123.288C436.629 122.712 437.541 121.96 438.309 121.032L442.149 125.208C441.189 126.392 439.845 127.416 438.117 128.28C436.389 129.144 434.197 129.576 431.541 129.576ZM430.965 108.744C429.429 108.744 428.197 109.224 427.269 110.184C426.373 111.112 425.925 112.376 425.925 113.976V114.36H435.909V113.976C435.909 112.344 435.461 111.064 434.565 110.136C433.701 109.208 432.501 108.744 430.965 108.744ZM448.802 123.48H454.514V109.752H448.802V104.232H461.618V111.24H461.954C462.178 110.344 462.482 109.48 462.866 108.648C463.282 107.784 463.794 107.032 464.402 106.392C465.042 105.72 465.81 105.192 466.706 104.808C467.602 104.424 468.658 104.232 469.874 104.232H472.226V110.76H466.946C465.186 110.76 463.858 111.288 462.962 112.344C462.066 113.368 461.618 114.632 461.618 116.136V123.48H469.778V129H448.802V123.48ZM489.103 129.576C484.943 129.576 481.791 128.424 479.647 126.12C477.503 123.816 476.431 120.68 476.431 116.712C476.431 114.696 476.703 112.888 477.247 111.288C477.823 109.656 478.623 108.28 479.647 107.16C480.703 106.008 481.967 105.144 483.439 104.568C484.943 103.96 486.623 103.656 488.479 103.656C490.335 103.656 491.999 103.96 493.471 104.568C494.943 105.144 496.191 105.976 497.215 107.064C498.239 108.152 499.023 109.48 499.567 111.048C500.143 112.584 500.431 114.312 500.431 116.232V118.344H483.487V118.776C483.487 120.376 483.983 121.672 484.975 122.664C485.967 123.624 487.423 124.104 489.343 124.104C490.815 124.104 492.079 123.832 493.135 123.288C494.191 122.712 495.103 121.96 495.871 121.032L499.711 125.208C498.751 126.392 497.407 127.416 495.679 128.28C493.951 129.144 491.759 129.576 489.103 129.576ZM488.527 108.744C486.991 108.744 485.759 109.224 484.831 110.184C483.935 111.112 483.487 112.376 483.487 113.976V114.36H493.471V113.976C493.471 112.344 493.023 111.064 492.127 110.136C491.263 109.208 490.063 108.744 488.527 108.744ZM235.88 191L233.768 182.936H224.6L222.536 191H215.24L224.312 157.496H234.488L243.56 191H235.88ZM229.4 164.456H229.016L225.752 177.128H232.664L229.4 164.456ZM259.189 191.576C257.237 191.576 255.477 191.288 253.909 190.712C252.373 190.104 251.061 189.24 249.973 188.12C248.917 187 248.101 185.64 247.525 184.04C246.949 182.44 246.661 180.632 246.661 178.616C246.661 176.6 246.949 174.792 247.525 173.192C248.101 171.592 248.917 170.232 249.973 169.112C251.061 167.992 252.373 167.144 253.909 166.568C255.477 165.96 257.221 165.656 259.141 165.656C261.861 165.656 264.037 166.216 265.669 167.336C267.333 168.424 268.597 169.88 269.461 171.704L263.989 174.68C263.541 173.72 262.949 172.92 262.213 172.28C261.509 171.64 260.485 171.32 259.141 171.32C257.509 171.32 256.245 171.8 255.349 172.76C254.485 173.688 254.053 174.968 254.053 176.6V180.632C254.053 182.264 254.485 183.56 255.349 184.52C256.245 185.448 257.541 185.912 259.237 185.912C260.613 185.912 261.685 185.592 262.453 184.952C263.253 184.312 263.925 183.48 264.469 182.456L269.845 185.528C268.949 187.352 267.637 188.824 265.909 189.944C264.213 191.032 261.973 191.576 259.189 191.576ZM287.971 191.576C286.019 191.576 284.259 191.288 282.691 190.712C281.155 190.104 279.843 189.24 278.755 188.12C277.699 187 276.883 185.64 276.307 184.04C275.731 182.44 275.443 180.632 275.443 178.616C275.443 176.6 275.731 174.792 276.307 173.192C276.883 171.592 277.699 170.232 278.755 169.112C279.843 167.992 281.155 167.144 282.691 166.568C284.259 165.96 286.003 165.656 287.923 165.656C290.643 165.656 292.819 166.216 294.451 167.336C296.115 168.424 297.379 169.88 298.243 171.704L292.771 174.68C292.323 173.72 291.731 172.92 290.995 172.28C290.291 171.64 289.267 171.32 287.923 171.32C286.291 171.32 285.027 171.8 284.131 172.76C283.267 173.688 282.835 174.968 282.835 176.6V180.632C282.835 182.264 283.267 183.56 284.131 184.52C285.027 185.448 286.323 185.912 288.019 185.912C289.395 185.912 290.467 185.592 291.235 184.952C292.035 184.312 292.707 183.48 293.251 182.456L298.627 185.528C297.731 187.352 296.419 188.824 294.691 189.944C292.995 191.032 290.755 191.576 287.971 191.576ZM315.744 191.576C313.824 191.576 312.096 191.288 310.56 190.712C309.024 190.104 307.712 189.24 306.624 188.12C305.568 187 304.752 185.64 304.176 184.04C303.6 182.44 303.312 180.632 303.312 178.616C303.312 176.6 303.6 174.792 304.176 173.192C304.752 171.592 305.568 170.232 306.624 169.112C307.712 167.992 309.024 167.144 310.56 166.568C312.096 165.96 313.824 165.656 315.744 165.656C317.664 165.656 319.392 165.96 320.928 166.568C322.464 167.144 323.76 167.992 324.816 169.112C325.904 170.232 326.736 171.592 327.312 173.192C327.888 174.792 328.176 176.6 328.176 178.616C328.176 180.632 327.888 182.44 327.312 184.04C326.736 185.64 325.904 187 324.816 188.12C323.76 189.24 322.464 190.104 320.928 190.712C319.392 191.288 317.664 191.576 315.744 191.576ZM315.744 186.296C317.344 186.296 318.592 185.8 319.488 184.808C320.384 183.816 320.832 182.408 320.832 180.584V176.648C320.832 174.824 320.384 173.416 319.488 172.424C318.592 171.432 317.344 170.936 315.744 170.936C314.144 170.936 312.896 171.432 312 172.424C311.104 173.416 310.656 174.824 310.656 176.648V180.584C310.656 182.408 311.104 183.816 312 184.808C312.896 185.8 314.144 186.296 315.744 186.296ZM348.701 186.488H348.413C347.869 187.896 347.005 189.096 345.821 190.088C344.669 191.08 343.101 191.576 341.117 191.576C339.933 191.576 338.845 191.384 337.853 191C336.861 190.584 336.013 189.976 335.309 189.176C334.605 188.376 334.045 187.4 333.629 186.248C333.245 185.096 333.053 183.768 333.053 182.264V166.232H340.157V181.304C340.157 184.504 341.549 186.104 344.333 186.104C344.877 186.104 345.405 186.04 345.917 185.912C346.461 185.752 346.925 185.528 347.309 185.24C347.725 184.92 348.061 184.536 348.317 184.088C348.573 183.64 348.701 183.112 348.701 182.504V166.232H355.805V191H348.701V186.488ZM362.026 191V166.232H369.13V170.744H369.418C369.706 170.04 370.058 169.384 370.474 168.776C370.89 168.168 371.386 167.64 371.962 167.192C372.57 166.712 373.258 166.344 374.026 166.088C374.826 165.8 375.722 165.656 376.714 165.656C377.898 165.656 378.986 165.864 379.978 166.28C380.97 166.664 381.818 167.256 382.522 168.056C383.226 168.856 383.77 169.832 384.154 170.984C384.57 172.136 384.778 173.464 384.778 174.968V191H377.674V175.928C377.674 172.728 376.282 171.128 373.498 171.128C372.954 171.128 372.41 171.208 371.866 171.368C371.354 171.496 370.89 171.72 370.474 172.04C370.058 172.328 369.722 172.696 369.466 173.144C369.242 173.592 369.13 174.12 369.13 174.728V191H362.026ZM404.008 191C401.448 191 399.544 190.328 398.296 188.984C397.048 187.64 396.424 185.928 396.424 183.848V171.752H389.704V166.232H394.072C395.128 166.232 395.88 166.024 396.328 165.608C396.776 165.192 397 164.424 397 163.304V157.496H403.528V166.232H413.176V171.752H403.528V185.48H413.176V191H404.008Z" fill="white"/>
<rect x="2.5" y="2.5" width="545" height="245" rx="37.5" stroke="white" stroke-width="5"/>
<path fill-rule="evenodd" clip-rule="evenodd" d="M145.487 85.3077C147.257 85.3077 148.692 86.7427 148.692 88.5128V117.359C148.692 117.788 148.681 118.216 148.665 118.641H148.711C148.959 125.682 151.228 131.817 154.518 136.143C158.002 140.725 162.351 143 166.649 143C170.946 143 175.295 140.725 178.779 136.143C182.069 131.817 184.34 125.682 184.587 118.641H184.577C184.584 118.428 184.59 118.214 184.59 118C184.59 109.707 179.591 102.568 172.417 99.4553L166.724 96.9864L169.007 91.2159C169.858 89.0666 170.352 86.7319 170.411 84.2773L170.417 83.7853C170.417 72.6276 161.372 63.5829 150.215 63.5829C147.578 63.5829 145.074 64.0847 142.783 64.9914L137.014 67.2751L134.543 61.5822C131.431 54.4079 124.292 49.4103 116 49.4103C107.707 49.4103 100.568 54.4082 97.4553 61.5822L94.9851 67.2751L89.2159 64.9914C87.0683 64.1414 84.7339 63.6477 82.2785 63.5892L81.7853 63.5829C70.6276 63.5829 61.5829 72.6276 61.5829 83.7853C61.5829 86.4215 62.0847 88.9249 62.9914 91.2159L65.2751 96.9851L59.5822 99.4553C52.4082 102.568 47.4103 109.707 47.4103 118C47.4103 126.292 52.4079 133.431 59.5822 136.543L65.2751 139.014L62.9914 144.783C62.0847 147.074 61.5829 149.578 61.5829 152.215C61.5829 163.372 70.6276 172.417 81.7853 172.417C84.4201 172.417 86.9234 171.915 89.2159 171.007L94.9864 168.724L97.4553 174.417C100.568 181.591 107.707 186.59 116 186.59C124.292 186.59 131.431 181.591 134.543 174.417L135.891 171.31C136.529 169.839 138.175 169.086 139.707 169.563C141.445 170.104 142.361 172.006 141.699 173.703L140.424 176.968C136.332 186.401 126.937 193 116 193C105.062 193 95.6667 186.401 91.5747 176.968C88.5445 178.167 85.2421 178.827 81.7853 178.827C67.0874 178.827 55.1727 166.913 55.1727 152.215C55.1727 148.758 55.8311 145.454 57.0306 142.424C47.5982 138.332 41 128.937 41 118C41 107.063 47.598 97.667 57.0306 93.5747C55.8314 90.5446 55.1727 87.2419 55.1727 83.7853C55.1727 69.0874 67.0874 57.1727 81.7853 57.1727C85.2419 57.1727 88.5446 57.8314 91.5747 59.0306C95.667 49.598 105.063 43 116 43C126.937 43 136.332 49.5982 140.424 59.0306C143.454 57.8311 146.758 57.1727 150.215 57.1727C164.913 57.1727 176.827 69.0874 176.827 83.7853C176.827 87.2421 176.167 90.5445 174.968 93.5747C184.401 97.6667 191 107.062 191 118C191 118.214 190.996 118.428 190.991 118.641H190.999C190.487 135.748 179.782 149.41 166.649 149.41C157.263 149.41 149.12 142.433 145.049 132.208C139.694 142.432 128.983 149.41 116.641 149.41C98.9396 149.41 84.5897 135.06 84.5897 117.359C84.5897 99.6575 98.9396 85.3077 116.641 85.3077C127.126 85.3077 136.434 90.3423 142.282 98.1257V88.5128C142.282 86.7427 143.717 85.3077 145.487 85.3077ZM116.641 91.718C102.48 91.718 91 103.198 91 117.359C91 131.52 102.48 143 116.641 143C130.802 143 142.282 131.52 142.282 117.359C142.282 103.198 130.802 91.718 116.641 91.718Z" fill="white"/>
</svg>
