<svg
  width="88"
  height="31"
  viewBox="0 0 88 31"
  fill="none"
  xmlns="http://www.w3.org/2000/svg"
>
  <path
    d="M36.5762 21.6527C37.1199 21.6527 37.5549 21.7647 37.8812 21.9886C38.2138 22.2061 38.4666 22.4972 38.6393 22.8618L37.5454 23.4567C37.4559 23.2648 37.3375 23.1049 37.1904 22.977C37.0496 22.849 36.8449 22.7849 36.5762 22.7849C36.25 22.7849 35.9973 22.8809 35.8182 23.0728C35.6455 23.2583 35.5592 23.5142 35.5592 23.8405V24.6465C35.5592 24.9727 35.6455 25.2317 35.8182 25.4236C35.9973 25.6091 36.2564 25.702 36.5954 25.702C36.8705 25.702 37.0848 25.6379 37.2384 25.51C37.3983 25.3821 37.5325 25.2157 37.6413 25.0111L38.716 25.6252C38.5369 25.9898 38.2746 26.2841 37.9292 26.508C37.5901 26.7255 37.1424 26.8342 36.5859 26.8342C36.1957 26.8342 35.8438 26.7767 35.5304 26.6615C35.2233 26.54 34.961 26.3672 34.7435 26.1433C34.5325 25.9194 34.3694 25.6476 34.2543 25.3278C34.1391 25.0079 34.0816 24.6465 34.0816 24.2435C34.0816 23.8405 34.1391 23.479 34.2543 23.1592C34.3694 22.8394 34.5325 22.5675 34.7435 22.3437C34.961 22.1198 35.2233 21.9502 35.5304 21.8351C35.8438 21.7135 36.1924 21.6527 36.5762 21.6527Z"
    fill="white"
  />
  <path
    d="M42.3296 21.6527C42.8733 21.6527 43.3083 21.7647 43.6346 21.9886C43.9672 22.2061 44.22 22.4972 44.3927 22.8618L43.2988 23.4567C43.2093 23.2648 43.0909 23.1049 42.9437 22.977C42.803 22.849 42.5983 22.7849 42.3296 22.7849C42.0034 22.7849 41.7507 22.8809 41.5716 23.0728C41.3989 23.2583 41.3126 23.5142 41.3126 23.8405V24.6465C41.3126 24.9727 41.3989 25.2317 41.5716 25.4236C41.7507 25.6091 42.0098 25.702 42.3488 25.702C42.6239 25.702 42.8382 25.6379 42.9918 25.51C43.1517 25.3821 43.2859 25.2157 43.3947 25.0111L44.4694 25.6252C44.2903 25.9898 44.028 26.2841 43.6826 26.508C43.3435 26.7255 42.8958 26.8342 42.3393 26.8342C41.9491 26.8342 41.5972 26.7767 41.2838 26.6615C40.9767 26.54 40.7144 26.3672 40.4969 26.1433C40.2859 25.9194 40.1228 25.6476 40.0077 25.3278C39.8925 25.0079 39.835 24.6465 39.835 24.2435C39.835 23.8405 39.8925 23.479 40.0077 23.1592C40.1228 22.8394 40.2859 22.5675 40.4969 22.3437C40.7144 22.1198 40.9767 21.9502 41.2838 21.8351C41.5972 21.7135 41.9458 21.6527 42.3296 21.6527Z"
    fill="white"
  />
  <path
    fill-rule="evenodd"
    clip-rule="evenodd"
    d="M47.8911 21.6527C48.2749 21.6527 48.6203 21.7136 48.9274 21.8351C49.2344 21.9502 49.4936 22.1198 49.7047 22.3437C49.9221 22.5675 50.0885 22.8394 50.2036 23.1592C50.3187 23.479 50.3763 23.8405 50.3763 24.2435C50.3763 24.6465 50.3187 25.0079 50.2036 25.3278C50.0885 25.6476 49.9221 25.9194 49.7047 26.1433C49.4936 26.3672 49.2344 26.54 48.9274 26.6615C48.6203 26.7767 48.2749 26.8342 47.8911 26.8342C47.5074 26.8342 47.162 26.7767 46.8549 26.6615C46.5479 26.54 46.2856 26.3672 46.0681 26.1433C45.857 25.9194 45.6938 25.6476 45.5787 25.3278C45.4636 25.0079 45.406 24.6465 45.406 24.2435C45.406 23.8405 45.4635 23.479 45.5787 23.1592C45.6938 22.8394 45.857 22.5676 46.0681 22.3437C46.2856 22.1198 46.5479 21.9502 46.8549 21.8351C47.162 21.7136 47.5074 21.6527 47.8911 21.6527ZM47.8911 22.7083C47.5713 22.7083 47.3218 22.8073 47.1427 23.0057C46.9636 23.204 46.8741 23.4855 46.8741 23.8501V24.6368C46.8741 25.0014 46.9636 25.283 47.1427 25.4813C47.3218 25.6796 47.5713 25.7787 47.8911 25.7787C48.211 25.7787 48.4605 25.6796 48.6396 25.4813C48.8187 25.283 48.9082 25.0014 48.9082 24.6368V23.8501C48.9082 23.4855 48.8187 23.204 48.6396 23.0057C48.4605 22.8073 48.211 22.7083 47.8911 22.7083Z"
    fill="white"
  />
  <path
    d="M52.7714 24.7808C52.7714 25.4205 53.0497 25.7404 53.6062 25.7404C53.7149 25.7403 53.8204 25.7276 53.9228 25.702C54.0315 25.67 54.1242 25.6252 54.201 25.5676C54.2842 25.5037 54.3514 25.4268 54.4025 25.3373C54.4537 25.2477 54.4794 25.1422 54.4794 25.0207V21.7679H55.8995V26.719H54.4794V25.817H54.4217C54.313 26.0985 54.1403 26.3384 53.9036 26.5367C53.6733 26.735 53.3599 26.8342 52.9632 26.8342C52.7266 26.8342 52.5091 26.7958 52.3108 26.719C52.1125 26.6359 51.9429 26.5144 51.8022 26.3545C51.6615 26.1946 51.5496 25.9994 51.4664 25.7692C51.3897 25.5389 51.3513 25.2734 51.3513 24.9727V21.7679H52.7714V24.7808Z"
    fill="white"
  />
  <path
    fill-rule="evenodd"
    clip-rule="evenodd"
    d="M33.4615 26.719H31.9264L31.5041 25.1071H29.6714L29.2589 26.719H27.8004L29.6139 20.0216H31.648L33.4615 26.719ZM29.9017 23.946H31.2834L30.631 21.4128H30.5543L29.9017 23.946Z"
    fill="white"
  />
  <path
    d="M60.0792 21.6527C60.3159 21.6527 60.5334 21.6944 60.7317 21.7776C60.93 21.8543 61.0996 21.9726 61.2403 22.1325C61.381 22.2924 61.4898 22.4875 61.5665 22.7178C61.6497 22.9481 61.6912 23.2136 61.6912 23.5142V26.719H60.2711V23.7061C60.2711 23.0665 59.9928 22.7466 59.4363 22.7466C59.3276 22.7466 59.2188 22.7626 59.1101 22.7946C59.0077 22.8202 58.915 22.865 58.8318 22.929C58.7487 22.9865 58.6815 23.0601 58.6303 23.1497C58.5855 23.2392 58.5631 23.3447 58.5631 23.4662V26.719H57.143V21.7679H58.5631V22.6699H58.6208C58.6783 22.5292 58.7487 22.398 58.8318 22.2765C58.915 22.155 59.0141 22.0493 59.1292 21.9598C59.2508 21.8638 59.3883 21.7902 59.5418 21.7391C59.7017 21.6815 59.8809 21.6527 60.0792 21.6527Z"
    fill="white"
  />
  <path
    d="M65.4392 21.7679H67.3678V22.8713H65.4392V25.6157H67.3678V26.719H65.5351C65.0234 26.719 64.6428 26.5846 64.3933 26.316C64.1439 26.0473 64.0191 25.7052 64.0191 25.2894V22.8713H62.6758V21.7679H63.5489C63.76 21.7679 63.9104 21.7264 63.9999 21.6432C64.0895 21.56 64.1343 21.4065 64.1343 21.1826V20.0216H65.4392V21.7679Z"
    fill="white"
  />
  <path
    fill-rule="evenodd"
    clip-rule="evenodd"
    d="M14.1714 4.42857C15.6333 4.42858 16.9085 5.22723 17.585 6.41191C17.7035 6.61945 17.9529 6.7225 18.1834 6.65944C18.5143 6.56892 18.8626 6.52061 19.2222 6.52061C21.3919 6.52062 23.1507 8.27955 23.1507 10.4492C23.1507 10.8088 23.1024 11.1571 23.0119 11.4879C22.9488 11.7184 23.0518 11.9678 23.2594 12.0863C24.4441 12.7628 25.2429 14.038 25.2429 15.5C25.2429 15.557 25.2415 15.6137 25.2391 15.6701L25.2385 15.6707C25.1461 18.0393 23.3659 19.9286 21.1831 19.9286L21.0782 19.9271C19.9589 19.896 18.9522 19.368 18.2346 18.5369C18.0257 18.295 17.6277 18.2869 17.4097 18.5206C16.6014 19.3869 15.4497 19.9286 14.1714 19.9286C11.7256 19.9286 9.74286 17.9458 9.74286 15.5C9.74286 13.0542 11.7256 11.0714 14.1714 11.0714C15.1657 11.0714 16.0833 11.3992 16.8224 11.9524C16.943 12.0426 17.1238 11.9601 17.1238 11.8095C17.1238 11.4019 17.4543 11.0714 17.8619 11.0714C18.2695 11.0714 18.6 11.4019 18.6 11.8095V15.5C18.611 17.2616 19.887 18.4524 21.1831 18.4524C22.4368 18.4524 23.6717 17.338 23.7609 15.6705L23.7606 15.6703C23.7615 15.658 23.7618 15.6457 23.7625 15.6333C23.7644 15.5894 23.7658 15.545 23.7661 15.5003L23.7667 15.4997C23.7666 14.4944 23.1611 13.6271 22.2888 13.2487L21.371 12.8506C21.1518 12.7555 21.0475 12.5036 21.1355 12.2814L21.5037 11.3511C21.6135 11.0737 21.6745 10.7703 21.6745 10.4492C21.6745 9.11593 20.6106 8.03124 19.2855 7.99767L19.2222 7.9968C18.9011 7.9968 18.5976 8.05783 18.3202 8.16763L17.3901 8.53581C17.1679 8.62378 16.9159 8.51963 16.8208 8.3004L16.4226 7.38268C16.0559 6.5375 15.2305 5.94284 14.2653 5.90649L14.1714 5.90476C13.166 5.90476 12.2986 6.51016 11.9201 7.38254L11.5221 8.30026C11.427 8.51951 11.175 8.62375 10.9528 8.53581L10.0225 8.16763C9.76245 8.06469 9.47951 8.00463 9.18064 7.99752L9.12067 7.9968C7.76625 7.9968 6.66823 9.09482 6.66823 10.4492C6.66823 10.7702 6.72925 11.0737 6.83906 11.3511L7.20724 12.2814C7.29518 12.5036 7.19094 12.7555 6.97169 12.8506L6.05397 13.2487C5.18159 13.6271 4.57619 14.4945 4.57619 15.5C4.57619 16.5054 5.18165 17.3727 6.05411 17.7512L6.97183 18.1494C7.19106 18.2445 7.29521 18.4964 7.20724 18.7186L6.83906 19.6488C6.72926 19.9261 6.66823 20.2296 6.66823 20.5508C6.66823 21.9052 7.76625 23.0032 9.12067 23.0032C9.44144 23.0032 9.74485 22.9421 10.0225 22.8322L10.9528 22.464C11.175 22.3761 11.427 22.4803 11.5221 22.6996L11.9201 23.6173C12.2986 24.4898 13.166 25.0952 14.1714 25.0952C15.1768 25.0952 16.0441 24.4898 16.4226 23.6173L16.7009 22.9758C16.8611 22.6064 17.291 22.4374 17.6599 22.5988C18.0195 22.7562 18.1893 23.1702 18.044 23.5347L17.7769 24.2048C17.1728 25.5973 15.786 26.5714 14.1714 26.5714C12.7095 26.5714 11.4342 25.7727 10.7577 24.5879C10.6392 24.3804 10.3899 24.2773 10.1593 24.3404C9.82849 24.431 9.48024 24.4794 9.12067 24.4794C6.95098 24.4794 5.19204 22.7205 5.19204 20.5508C5.19204 20.1912 5.24035 19.8428 5.33087 19.512C5.39393 19.2814 5.29088 19.0321 5.08334 18.9135C3.89865 18.2371 3.1 16.9619 3.1 15.5C3.1 14.0381 3.89863 12.7628 5.08334 12.0863C5.29088 11.9678 5.39393 11.7184 5.33087 11.4879C5.24036 11.1571 5.19204 10.8088 5.19204 10.4492C5.19204 8.27955 6.95098 6.52061 9.12067 6.52061C9.48022 6.52061 9.82849 6.56893 10.1593 6.65944C10.3899 6.7225 10.6392 6.61945 10.7577 6.41191C11.4342 5.22721 12.7095 4.42857 14.1714 4.42857ZM14.1714 12.5476C12.5409 12.5476 11.2191 13.8694 11.2191 15.5C11.2191 17.1306 12.5409 18.4524 14.1714 18.4524C15.802 18.4524 17.1238 17.1306 17.1238 15.5C17.1238 13.8694 15.802 12.5476 14.1714 12.5476Z"
    fill="white"
  />
  <path
    fill-rule="evenodd"
    clip-rule="evenodd"
    d="M60.0409 12.0575C60.3159 12.0575 60.5654 12.1087 60.7892 12.211C61.0195 12.3134 61.2146 12.4702 61.3745 12.6813C61.5408 12.8924 61.6688 13.161 61.7584 13.4872C61.8543 13.8135 61.9023 14.2005 61.9023 14.6483C61.9023 15.096 61.8543 15.483 61.7584 15.8092C61.6688 16.1355 61.5408 16.4041 61.3745 16.6152C61.2146 16.8263 61.0195 16.9831 60.7892 17.0855C60.5654 17.1878 60.3159 17.239 60.0409 17.239C59.6443 17.239 59.3308 17.1461 59.1005 16.9606C58.8703 16.7687 58.6943 16.5225 58.5728 16.2218H58.5056V19.0429H57.0855V12.1727H58.5056V13.0747H58.5728C58.6943 12.7804 58.8703 12.5373 59.1005 12.3454C59.3308 12.1535 59.6443 12.0575 60.0409 12.0575ZM59.4268 13.161C59.1773 13.161 58.9598 13.2217 58.7743 13.3432C58.5952 13.4648 58.5056 13.6567 58.5056 13.919V15.3775C58.5056 15.6397 58.5952 15.8317 58.7743 15.9532C58.9598 16.0748 59.1773 16.1355 59.4268 16.1355C59.7466 16.1354 59.9929 16.0396 60.1656 15.8477C60.3383 15.6494 60.4246 15.3775 60.4246 15.0321V14.2644C60.4246 13.919 60.3383 13.6503 60.1656 13.4584C59.9929 13.2601 59.7466 13.161 59.4268 13.161Z"
    fill="white"
  />
  <path
    fill-rule="evenodd"
    clip-rule="evenodd"
    d="M47.8911 12.0575C48.2749 12.0575 48.6203 12.1183 48.9274 12.2398C49.2344 12.355 49.4936 12.5245 49.7047 12.7484C49.9221 12.9723 50.0885 13.2441 50.2036 13.5639C50.3187 13.8838 50.3763 14.2453 50.3763 14.6483C50.3763 15.0513 50.3187 15.4127 50.2036 15.7325C50.0885 16.0523 49.9221 16.3242 49.7047 16.548C49.4936 16.7719 49.2344 16.9448 48.9274 17.0663C48.6203 17.1814 48.2749 17.239 47.8911 17.239C47.5074 17.239 47.162 17.1814 46.8549 17.0663C46.5479 16.9448 46.2856 16.7719 46.0681 16.548C45.857 16.3242 45.6938 16.0524 45.5787 15.7325C45.4636 15.4127 45.406 15.0513 45.406 14.6483C45.406 14.2453 45.4635 13.8838 45.5787 13.5639C45.6938 13.2441 45.857 12.9723 46.0681 12.7484C46.2856 12.5245 46.5479 12.355 46.8549 12.2398C47.162 12.1183 47.5074 12.0575 47.8911 12.0575ZM47.8911 13.113C47.5713 13.113 47.3218 13.2121 47.1427 13.4104C46.9636 13.6087 46.8741 13.8903 46.8741 14.2549V15.0416C46.8741 15.4062 46.9636 15.6878 47.1427 15.8861C47.3218 16.0844 47.5713 16.1835 47.8911 16.1835C48.211 16.1835 48.4605 16.0844 48.6396 15.8861C48.8187 15.6878 48.9082 15.4062 48.9082 15.0416V14.2549C48.9082 13.8903 48.8187 13.6087 48.6396 13.4104C48.4605 13.2121 48.211 13.113 47.8911 13.113Z"
    fill="white"
  />
  <path
    d="M53.7692 12.0575C54.2554 12.0575 54.6681 12.1247 55.0071 12.259C55.3525 12.3869 55.6276 12.5725 55.8323 12.8156L55.1222 13.6216C54.975 13.4617 54.7863 13.3273 54.5561 13.2185C54.3258 13.1098 54.0475 13.0555 53.7212 13.0555C53.1712 13.0555 52.8961 13.2218 52.8961 13.5544C52.8961 13.7015 52.9505 13.8039 53.0593 13.8615C53.168 13.9127 53.3183 13.9542 53.5102 13.9862L54.297 14.1109C54.5209 14.1429 54.7288 14.1941 54.9206 14.2644C55.1125 14.3284 55.279 14.418 55.4197 14.5331C55.5668 14.6483 55.682 14.7889 55.7651 14.9552C55.8483 15.1215 55.8898 15.3231 55.8898 15.5598C55.8898 16.0779 55.6883 16.4873 55.2854 16.7879C54.8888 17.0886 54.3226 17.239 53.587 17.239C53.0369 17.239 52.5571 17.1558 52.1477 16.9895C51.7447 16.8231 51.4408 16.596 51.2361 16.3082L52.0326 15.5693C52.2245 15.7804 52.4483 15.9467 52.7042 16.0683C52.9665 16.1834 53.2639 16.241 53.5965 16.241C53.878 16.241 54.0987 16.1994 54.2587 16.1163C54.4185 16.0267 54.4985 15.8924 54.4985 15.7134C54.4985 15.5726 54.4441 15.4766 54.3354 15.4255C54.2266 15.3679 54.0763 15.3231 53.8844 15.2911L53.0881 15.1664C52.8642 15.1344 52.6562 15.0864 52.4643 15.0224C52.2724 14.952 52.1061 14.8593 51.9654 14.7442C51.8247 14.629 51.7126 14.4882 51.6295 14.3219C51.5464 14.1556 51.5048 13.9541 51.5048 13.7175C51.5048 13.1993 51.7031 12.7931 52.0997 12.4989C52.4963 12.2047 53.0528 12.0575 53.7692 12.0575Z"
    fill="white"
  />
  <path
    fill-rule="evenodd"
    clip-rule="evenodd"
    d="M70.9144 12.0575C71.2854 12.0575 71.618 12.1183 71.9123 12.2398C72.2065 12.355 72.4559 12.5213 72.6606 12.7388C72.8653 12.9563 73.0221 13.2218 73.1308 13.5353C73.246 13.8423 73.3035 14.1877 73.3035 14.5715V14.9937H69.9164V15.0801C69.9164 15.3999 70.0156 15.6589 70.2139 15.8572C70.4122 16.0491 70.7033 16.1451 71.0871 16.1451C71.3813 16.1451 71.634 16.0907 71.8451 15.9819C72.0562 15.8668 72.2385 15.7165 72.392 15.531L73.1597 16.3658C72.9678 16.6025 72.6991 16.8072 72.3537 16.9799C72.0083 17.1527 71.57 17.239 71.0391 17.239C70.2075 17.239 69.5775 17.0086 69.1489 16.548C68.7203 16.0875 68.5059 15.4607 68.5059 14.6675C68.5059 14.2645 68.5604 13.903 68.6691 13.5831C68.7843 13.2569 68.9442 12.9818 69.1489 12.7579C69.36 12.5277 69.6126 12.355 69.9069 12.2398C70.2075 12.1183 70.5434 12.0575 70.9144 12.0575ZM70.9239 13.0747C70.6169 13.0747 70.3706 13.1705 70.1851 13.3624C70.006 13.5479 69.9164 13.8007 69.9164 14.1205V14.1972H71.9123V14.1205C71.9123 13.7943 71.8227 13.5384 71.6435 13.3529C71.4708 13.1674 71.231 13.0747 70.9239 13.0747Z"
    fill="white"
  />
  <path
    fill-rule="evenodd"
    clip-rule="evenodd"
    d="M82.4212 12.0575C82.7922 12.0575 83.1248 12.1183 83.4191 12.2398C83.7133 12.355 83.9627 12.5213 84.1674 12.7388C84.3721 12.9563 84.5289 13.2218 84.6376 13.5353C84.7528 13.8423 84.8103 14.1877 84.8103 14.5715V14.9937H81.4232V15.0801C81.4232 15.3999 81.5224 15.6589 81.7207 15.8572C81.919 16.0491 82.2101 16.1451 82.5939 16.1451C82.8881 16.1451 83.1408 16.0907 83.3519 15.9819C83.563 15.8668 83.7453 15.7165 83.8988 15.531L84.6665 16.3658C84.4746 16.6025 84.2059 16.8072 83.8605 16.9799C83.515 17.1527 83.0768 17.239 82.5459 17.239C81.7143 17.239 81.0843 17.0086 80.6557 16.548C80.2271 16.0875 80.0127 15.4607 80.0127 14.6675C80.0127 14.2645 80.0672 13.903 80.1759 13.5831C80.291 13.2569 80.451 12.9818 80.6557 12.7579C80.8668 12.5277 81.1194 12.355 81.4137 12.2398C81.7143 12.1183 82.0502 12.0575 82.4212 12.0575ZM82.4307 13.0747C82.1237 13.0747 81.8774 13.1705 81.6919 13.3624C81.5128 13.5479 81.4232 13.8007 81.4232 14.1205V14.1972H83.4191V14.1205C83.4191 13.7943 83.3295 13.5384 83.1503 13.3529C82.9776 13.1674 82.7377 13.0747 82.4307 13.0747Z"
    fill="white"
  />
  <path
    fill-rule="evenodd"
    clip-rule="evenodd"
    d="M33.4615 17.1238H31.9264L31.5041 15.5118H29.6714L29.2589 17.1238H27.8004L29.6139 10.4263H31.648L33.4615 17.1238ZM29.9017 14.3508H31.2834L30.631 11.8176H30.5543L29.9017 14.3508Z"
    fill="white"
  />
  <path
    d="M36.6722 12.1727H38.6008V13.2761H36.6722V16.0204H38.6008V17.1238H36.7681C36.2564 17.1238 35.8758 16.9894 35.6264 16.7207C35.3769 16.4521 35.2521 16.1099 35.2521 15.6942V13.2761H33.9089V12.1727H34.7819C34.993 12.1727 35.1434 12.1311 35.233 12.048C35.3225 11.9648 35.3673 11.8113 35.3673 11.5874V10.4263H36.6722V12.1727Z"
    fill="white"
  />
  <path
    d="M43.6922 12.0575C44.383 12.0575 44.7284 12.5661 44.7284 13.5831V17.1238H43.5867V13.7271C43.5867 13.4968 43.545 13.3369 43.4619 13.2474C43.3851 13.1514 43.2827 13.1034 43.1548 13.1034C43.0333 13.1034 42.9278 13.145 42.8382 13.2282C42.7551 13.305 42.7135 13.4265 42.7135 13.5928V17.1238H41.562V13.7271C41.562 13.4969 41.5237 13.3369 41.4469 13.2474C41.3766 13.1514 41.2773 13.1034 41.1494 13.1034C41.0215 13.1034 40.9127 13.145 40.8232 13.2282C40.7336 13.305 40.6888 13.4265 40.6888 13.5928V17.1238H39.5471V12.1727H40.6888V12.902H40.756C40.8327 12.6717 40.9415 12.4733 41.0822 12.307C41.2293 12.1407 41.4341 12.0575 41.6963 12.0575C42.1761 12.0575 42.4704 12.339 42.5792 12.902H42.6367C42.6751 12.7868 42.7231 12.6781 42.7807 12.5757C42.8383 12.4734 42.9086 12.3838 42.9918 12.307C43.0749 12.2303 43.174 12.1694 43.2892 12.1247C43.4043 12.0799 43.5387 12.0575 43.6922 12.0575Z"
    fill="white"
  />
  <path
    d="M64.3165 13.0747H64.3742C64.4317 12.9339 64.5021 12.8028 64.5852 12.6813C64.6684 12.5597 64.7675 12.4541 64.8826 12.3645C65.0042 12.2686 65.1417 12.195 65.2952 12.1438C65.4551 12.0863 65.6343 12.0575 65.8326 12.0575C66.0693 12.0575 66.2868 12.0992 66.4851 12.1823C66.6834 12.2591 66.853 12.3773 66.9937 12.5372C67.1344 12.6971 67.2432 12.8923 67.3199 13.1225C67.4031 13.3528 67.4446 13.6184 67.4446 13.919V17.1238H66.0245V14.1109C66.0245 13.4712 65.7462 13.1514 65.1897 13.1514C65.0809 13.1514 64.9722 13.1674 64.8635 13.1994C64.7611 13.225 64.6684 13.2698 64.5852 13.3337C64.5021 13.3913 64.4349 13.4649 64.3837 13.5544C64.3389 13.644 64.3165 13.7495 64.3165 13.871V17.1238H62.8964V10.0234H64.3165V13.0747Z"
    fill="white"
  />
  <path
    d="M77.0515 13.5736H77.1187C77.1635 13.3945 77.2243 13.2218 77.3011 13.0555C77.3842 12.8828 77.4865 12.7324 77.608 12.6044C77.7359 12.4701 77.8895 12.3646 78.0686 12.2878C78.2477 12.2111 78.4588 12.1727 78.7019 12.1727H79.1721V13.4776H78.1166C77.7648 13.4776 77.4994 13.5832 77.3203 13.7943C77.1411 13.999 77.0515 14.2516 77.0515 14.5523V16.0204H78.6827V17.1238H74.4895V16.0204H75.6314V13.2761H74.4895V12.1727H77.0515V13.5736Z"
    fill="white"
  />
  <path
    fill-rule="evenodd"
    clip-rule="evenodd"
    d="M37.0801 4.78637H36.4636V4.97234C36.5628 5.05737 36.639 5.15845 36.6921 5.27536C36.7453 5.39227 36.7719 5.52338 36.7719 5.66863C36.7718 5.80678 36.7453 5.93433 36.6921 6.05123C36.6425 6.16812 36.5717 6.26909 36.4796 6.35411C36.3875 6.43559 36.2741 6.49935 36.1394 6.54541C36.0084 6.59145 35.8632 6.61445 35.7038 6.61446C35.6577 6.61446 35.6134 6.61281 35.5709 6.60927C35.5284 6.60573 35.4858 6.60035 35.4433 6.59327C35.4008 6.60035 35.3565 6.61276 35.3105 6.63046C35.2645 6.64463 35.2219 6.66585 35.1829 6.69418C35.144 6.71898 35.112 6.74914 35.0872 6.78457C35.0624 6.81999 35.05 6.86077 35.05 6.90681C35.05 6.98829 35.0908 7.04324 35.1723 7.07159C35.2537 7.09639 35.3601 7.10878 35.4911 7.10878H36.097C36.4513 7.10879 36.7082 7.17613 36.8676 7.31075C37.027 7.44183 37.1067 7.61894 37.1067 7.84212C37.1067 8.11843 36.9916 8.32212 36.7613 8.45321C36.531 8.58784 36.1855 8.65518 35.725 8.65518C35.2822 8.65518 34.9633 8.59676 34.7685 8.47988C34.5772 8.36298 34.4815 8.19466 34.4815 7.97503C34.4815 7.82623 34.5204 7.71097 34.5984 7.62948C34.6763 7.54803 34.7861 7.48782 34.9278 7.44885V7.38513C34.8498 7.34616 34.7896 7.29644 34.7471 7.23622C34.7046 7.176 34.6834 7.09981 34.6834 7.00772C34.6834 6.86603 34.7294 6.75969 34.8215 6.68884C34.9172 6.618 35.0359 6.56497 35.1776 6.52955V6.50821C35.0076 6.43382 34.8747 6.32405 34.779 6.17881C34.6869 6.03357 34.6409 5.86346 34.6409 5.66863C34.6409 5.53046 34.6657 5.4028 34.7153 5.28589C34.7649 5.16901 34.8357 5.06981 34.9278 4.98834C35.0234 4.90331 35.1369 4.83777 35.268 4.79171C35.3991 4.74566 35.5444 4.72266 35.7038 4.72266C35.9092 4.72266 36.0899 4.75984 36.2458 4.83424V4.78637C36.2458 4.6801 36.2706 4.59154 36.3202 4.52069C36.3698 4.44985 36.4548 4.41445 36.5752 4.41444H37.0801V4.78637ZM35.1616 7.50205C34.9774 7.57645 34.8854 7.70041 34.8854 7.87398C34.8854 7.99443 34.9332 8.09716 35.0288 8.18219C35.1245 8.27076 35.2839 8.3151 35.5071 8.3151H35.9216C36.1696 8.3151 36.3627 8.27612 36.5008 8.19819C36.639 8.12379 36.7081 8.01211 36.7081 7.86331C36.7081 7.75351 36.6638 7.66493 36.5752 7.59762C36.4866 7.53387 36.3325 7.50205 36.1129 7.50205H35.1616ZM35.7038 5.05206C35.4912 5.05206 35.3353 5.10178 35.2361 5.20098C35.1369 5.29663 35.0872 5.42594 35.0872 5.58891V5.74302C35.0872 5.90597 35.1369 6.03709 35.2361 6.13628C35.3353 6.23544 35.4912 6.28505 35.7038 6.28505C35.9163 6.28505 36.0722 6.23547 36.1714 6.13628C36.2742 6.03709 36.3255 5.90597 36.3255 5.74302V5.58891C36.3255 5.42597 36.2741 5.29663 36.1714 5.20098C36.0722 5.10179 35.9163 5.05207 35.7038 5.05206Z"
    fill="white"
  />
  <path
    d="M70.3566 5.93431L70.7658 6.97587H70.7871L71.1962 5.93431L71.6585 4.78637H72.0838L70.7232 8.12914C70.6914 8.20704 70.6559 8.2743 70.617 8.33096C70.578 8.39118 70.532 8.43912 70.4789 8.47454C70.4258 8.51351 70.362 8.54188 70.2876 8.5596C70.2132 8.58086 70.1245 8.59146 70.0218 8.59146H69.618V8.23005H70.2556L70.5639 7.47538L69.4585 4.78637H69.8943L70.3566 5.93431Z"
    fill="white"
  />
  <path
    d="M29.3573 3.75549C29.6549 3.75549 29.9047 3.80507 30.1067 3.90426C30.3121 4.00346 30.4768 4.14339 30.6008 4.32406L30.2873 4.59508C30.1846 4.46048 30.0606 4.35069 29.9154 4.26567C29.7701 4.18064 29.5823 4.13809 29.352 4.13809C29.1004 4.13809 28.9074 4.19125 28.7727 4.29753C28.6381 4.40381 28.5708 4.56317 28.5708 4.77571C28.5708 4.94221 28.6204 5.07869 28.7196 5.18498C28.8223 5.28771 29.0048 5.36208 29.2669 5.40813L29.6655 5.47719C29.8462 5.50907 29.9985 5.557 30.1225 5.62077C30.2465 5.68454 30.3458 5.76069 30.4202 5.84926C30.4981 5.93782 30.5531 6.037 30.585 6.14681C30.6169 6.25663 30.6327 6.3719 30.6327 6.49236C30.6327 6.83598 30.5193 7.10524 30.2926 7.30008C30.0694 7.49493 29.7505 7.59229 29.336 7.59229C29.003 7.59228 28.7301 7.53211 28.5176 7.41166C28.305 7.28766 28.1297 7.12997 27.9915 6.93867L28.3158 6.67299C28.461 6.85365 28.6133 6.98836 28.7727 7.07692C28.9357 7.16548 29.1288 7.20969 29.352 7.20969C29.6212 7.20969 29.8267 7.14771 29.9684 7.02373C30.1101 6.89973 30.181 6.72608 30.181 6.50288C30.181 6.32222 30.1297 6.18228 30.0269 6.08309C29.9242 5.98035 29.7453 5.90778 29.4902 5.86526L29.0756 5.79607C28.895 5.76418 28.7426 5.71639 28.6186 5.65263C28.4982 5.58886 28.4007 5.51271 28.3263 5.42414C28.2519 5.33202 28.1987 5.23273 28.1668 5.12645C28.135 5.01664 28.1191 4.90326 28.1191 4.78637C28.1191 4.44628 28.2307 4.18944 28.4539 4.01584C28.6771 3.84224 28.9782 3.75549 29.3573 3.75549Z"
    fill="white"
  />
  <path
    fill-rule="evenodd"
    clip-rule="evenodd"
    d="M73.9576 4.72266C74.1489 4.72266 74.3208 4.75626 74.4731 4.82357C74.629 4.89088 74.7601 4.98838 74.8664 5.11592C74.9762 5.23992 75.0595 5.39044 75.1162 5.56757C75.1729 5.74471 75.2011 5.94136 75.2011 6.15747C75.2011 6.37713 75.1729 6.57556 75.1162 6.75271C75.0595 6.92629 74.9762 7.07682 74.8664 7.20436C74.7601 7.32836 74.629 7.42406 74.4731 7.49138C74.3208 7.55869 74.1489 7.59229 73.9576 7.59229C73.7663 7.59229 73.5928 7.55867 73.4369 7.49138C73.2845 7.42407 73.1535 7.32836 73.0436 7.20436C72.9373 7.07682 72.8558 6.9263 72.7991 6.75271C72.7424 6.57556 72.7141 6.37713 72.7141 6.15747C72.7141 5.94136 72.7424 5.74471 72.7991 5.56757C72.8558 5.39044 72.9373 5.23992 73.0436 5.11592C73.1535 4.98838 73.2846 4.89088 73.4369 4.82357C73.5928 4.75628 73.7663 4.72266 73.9576 4.72266ZM73.9576 5.08925C73.7202 5.08926 73.5289 5.16018 73.3837 5.30189C73.2384 5.4436 73.1657 5.66325 73.1657 5.96084V6.35411C73.1657 6.6517 73.2384 6.87134 73.3837 7.01306C73.5289 7.15477 73.7202 7.22569 73.9576 7.22569C74.195 7.22569 74.3864 7.15477 74.5316 7.01306C74.6769 6.87134 74.7495 6.65167 74.7495 6.35411V5.96084C74.7495 5.66327 74.6769 5.4436 74.5316 5.30189C74.3864 5.16017 74.195 5.08925 73.9576 5.08925Z"
    fill="white"
  />
  <path
    d="M76.4639 6.47102C76.4639 6.72256 76.5187 6.91039 76.6286 7.03439C76.7384 7.15485 76.8997 7.21502 77.1122 7.21503C77.1973 7.21503 77.2806 7.20442 77.3621 7.18317C77.4435 7.16191 77.5161 7.12995 77.5799 7.08744C77.6436 7.04493 77.695 6.99177 77.734 6.928C77.7729 6.8607 77.7925 6.78094 77.7925 6.68884V4.78637H78.2176V7.52857H77.7925V7.08211H77.7712C77.7428 7.14941 77.7074 7.21499 77.6649 7.27874C77.6224 7.33896 77.5693 7.39213 77.5055 7.43818C77.4453 7.48423 77.3727 7.52142 77.2877 7.54976C77.2026 7.57811 77.1034 7.59229 76.99 7.59229C76.703 7.59229 76.4728 7.50195 76.2992 7.32127C76.1256 7.13704 76.0387 6.87843 76.0387 6.54541V4.78637H76.4639V6.47102Z"
    fill="white"
  />
  <path
    d="M32.9157 7.16716H33.8405V7.52857H31.5023V7.16716H32.4906V5.14778H31.5023V4.78637H32.9157V7.16716Z"
    fill="white"
  />
  <path
    d="M39.0602 4.72266C39.3472 4.72266 39.5776 4.81478 39.7512 4.99901C39.9248 5.17969 40.0115 5.43654 40.0115 5.76954V7.52857H39.5864V5.84393C39.5864 5.59239 39.5315 5.40634 39.4216 5.28589C39.3118 5.16191 39.1505 5.09992 38.938 5.09992C38.853 5.09993 38.7698 5.11054 38.6883 5.13178C38.6068 5.15304 38.5341 5.18499 38.4703 5.2275C38.4066 5.27001 38.3552 5.32498 38.3162 5.39228C38.2773 5.45958 38.2578 5.53755 38.2578 5.6261V7.52857H37.8327V4.78637H38.2578V5.23284H38.279C38.3074 5.16552 38.3429 5.10176 38.3854 5.04154C38.4279 4.97777 38.4793 4.92282 38.5395 4.87676C38.6033 4.83072 38.6777 4.79352 38.7627 4.76518C38.8477 4.73684 38.9469 4.72266 39.0602 4.72266Z"
    fill="white"
  />
  <path
    d="M45.6617 7.16716H46.5865V7.52857H44.2482V7.16716H45.2366V5.14778H44.2482V4.78637H45.6617V7.16716Z"
    fill="white"
  />
  <path
    d="M48.6197 4.72266C48.9067 4.72266 49.1371 4.81478 49.3107 4.99901C49.4843 5.17969 49.571 5.43654 49.571 5.76954V7.52857H49.1459V5.84393C49.1459 5.59239 49.091 5.40634 48.9811 5.28589C48.8713 5.16191 48.71 5.09992 48.4975 5.09992C48.4125 5.09993 48.3293 5.11054 48.2478 5.13178C48.1663 5.15304 48.0936 5.18499 48.0298 5.2275C47.9661 5.27001 47.9147 5.32498 47.8757 5.39228C47.8368 5.45958 47.8173 5.53755 47.8173 5.6261V7.52857H47.3922V4.78637H47.8173V5.23284H47.8385C47.8669 5.16552 47.9024 5.10176 47.9449 5.04154C47.9874 4.97777 48.0388 4.92282 48.099 4.87676C48.1628 4.83072 48.2372 4.79352 48.3222 4.76518C48.4072 4.73684 48.5064 4.72266 48.6197 4.72266Z"
    fill="white"
  />
  <path
    d="M54.0946 7.15664H54.1425L54.6101 4.78637H55.0778L55.5454 7.15664H55.5933L55.9068 4.78637H56.2734L55.8536 7.52857H55.3009L54.8653 5.23284H54.8228L54.3763 7.52857H53.8236L53.4038 4.78637H53.7811L54.0946 7.15664Z"
    fill="white"
  />
  <path
    d="M58.4077 7.16716H59.3325V7.52857H56.9942V7.16716H57.9826V5.14778H56.9942V4.78637H58.4077V7.16716Z"
    fill="white"
  />
  <path
    d="M61.1637 4.78637H62.4126V5.14778H61.1637V7.16716H62.4126V7.52857H61.3445C61.1355 7.52857 60.9814 7.47004 60.8822 7.35313C60.7866 7.23622 60.7386 7.0857 60.7386 6.90148V5.14778H59.8247V4.78637H60.5048C60.5969 4.78637 60.6607 4.76871 60.6961 4.73332C60.7351 4.69436 60.7546 4.62877 60.7546 4.53669V3.81921H61.1637V4.78637Z"
    fill="white"
  />
  <path
    d="M63.7498 5.23284H63.771C63.7994 5.16552 63.8349 5.10176 63.8774 5.04154C63.9199 4.97777 63.9713 4.92282 64.0315 4.87676C64.0953 4.83072 64.1697 4.79352 64.2547 4.76518C64.3397 4.73684 64.4389 4.72266 64.5522 4.72266C64.8392 4.72266 65.0696 4.81478 65.2432 4.99901C65.4167 5.17969 65.5035 5.43654 65.5035 5.76954V7.52857H65.0784V5.84393C65.0784 5.59239 65.0234 5.40634 64.9136 5.28589C64.8038 5.16191 64.6425 5.09992 64.43 5.09992C64.345 5.09993 64.2617 5.11054 64.1803 5.13178C64.0988 5.15304 64.0261 5.18499 63.9623 5.2275C63.8986 5.27001 63.8472 5.32498 63.8082 5.39228C63.7693 5.45958 63.7498 5.53755 63.7498 5.6261V7.52857H63.3247V3.59605H63.7498V5.23284Z"
    fill="white"
  />
  <path
    d="M80.3731 5.47719H80.3996C80.4563 5.2611 80.5626 5.09279 80.7185 4.97234C80.8779 4.84834 81.08 4.78637 81.3244 4.78637H81.707V5.2115H81.1915C80.9471 5.21151 80.7486 5.28243 80.5963 5.42414C80.4475 5.56584 80.3731 5.75191 80.3731 5.98218V7.16716H81.436V7.52857H79.1456V7.16716H79.948V5.14778H79.1456V4.78637H80.3731V5.47719Z"
    fill="white"
  />
  <path d="M42.8632 6.13628H41.3221V5.68982H42.8632V6.13628Z" fill="white" />
  <path
    d="M32.7032 3.55353C32.8272 3.55353 32.914 3.58011 32.9636 3.63325C33.0132 3.68284 33.038 3.74661 33.038 3.82454V3.9096C33.038 3.98752 33.0132 4.0531 32.9636 4.10623C32.914 4.1558 32.8272 4.18061 32.7032 4.18062C32.5793 4.18062 32.4925 4.15579 32.4429 4.10623C32.3933 4.0531 32.3684 3.98752 32.3684 3.9096V3.82454C32.3684 3.7466 32.3933 3.68285 32.4429 3.63325C32.4925 3.58011 32.5793 3.55353 32.7032 3.55353Z"
    fill="white"
  />
  <path
    d="M45.4492 3.55353C45.5732 3.55353 45.66 3.58011 45.7096 3.63325C45.7592 3.68284 45.784 3.74661 45.784 3.82454V3.9096C45.784 3.98752 45.7592 4.0531 45.7096 4.10623C45.66 4.1558 45.5732 4.18061 45.4492 4.18062C45.3253 4.18062 45.2385 4.15579 45.1889 4.10623C45.1393 4.0531 45.1144 3.98752 45.1144 3.9096V3.82454C45.1144 3.7466 45.1393 3.68285 45.1889 3.63325C45.2385 3.58011 45.3252 3.55353 45.4492 3.55353Z"
    fill="white"
  />
  <path
    d="M58.1952 3.55353C58.3192 3.55353 58.406 3.58011 58.4556 3.63325C58.5052 3.68284 58.53 3.74661 58.53 3.82454V3.9096C58.5299 3.98752 58.5052 4.0531 58.4556 4.10623C58.406 4.1558 58.3192 4.18061 58.1952 4.18062C58.0713 4.18062 57.9845 4.15579 57.9349 4.10623C57.8853 4.0531 57.8603 3.98752 57.8603 3.9096V3.82454C57.8603 3.7466 57.8853 3.68285 57.9349 3.63325C57.9845 3.58011 58.0712 3.55353 58.1952 3.55353Z"
    fill="white"
  />
  <path
    fill-rule="evenodd"
    clip-rule="evenodd"
    d="M82.0952 0C85.3564 0 88 2.64365 88 5.90476V25.0952C88 28.3563 85.3563 31 82.0952 31H5.90476C2.6946 31 0.0826976 28.4383 0.00187407 25.2476L0 25.0952V5.90476C0 2.64365 2.64365 1.75267e-07 5.90476 0H82.0952ZM5.90476 0.738095C3.05129 0.738096 0.738095 3.05129 0.738095 5.90476V25.0952C0.738098 27.9487 3.05129 30.2619 5.90476 30.2619H82.0952C84.9487 30.2619 87.2619 27.9487 87.2619 25.0952V5.90476C87.2619 3.05129 84.9487 0.738095 82.0952 0.738095H5.90476Z"
    fill="white"
  />
</svg>
