<svg width="117" height="117" viewBox="0 0 117 117" fill="none" xmlns="http://www.w3.org/2000/svg">
<path fill-rule="evenodd" clip-rule="evenodd" d="M81.5 33C82.8807 33 84 34.1193 84 35.5V58C84 58.3349 83.9916 58.6683 83.9785 59H84.0146C84.2077 64.4916 85.9781 69.2769 88.5439 72.6514C91.2614 76.2251 94.6537 77.9998 98.0059 78C101.358 78 104.75 76.2251 107.468 72.6514C110.034 69.2769 111.805 64.4917 111.998 59H111.99C111.995 58.8339 112 58.6673 112 58.5C112 52.0317 108.101 46.4628 102.505 44.0352L98.0645 42.1094L99.8457 37.6084C100.509 35.9319 100.895 34.1109 100.94 32.1963L100.945 31.8125C100.945 23.1096 93.8904 16.0547 85.1875 16.0547C83.1305 16.0547 81.1773 16.4461 79.3906 17.1533L74.8906 18.9346L72.9639 14.4941C70.536 8.89816 64.9678 5 58.5 5C52.0318 5 46.4628 8.89837 44.0352 14.4941L42.1084 18.9346L37.6084 17.1533C35.9332 16.4903 34.1124 16.1052 32.1973 16.0596L31.8125 16.0547C23.1096 16.0547 16.0547 23.1096 16.0547 31.8125C16.0547 33.8688 16.446 35.8214 17.1533 37.6084L18.9346 42.1084L14.4941 44.0352C8.89837 46.4628 5 52.0318 5 58.5C5 64.9678 8.89816 70.536 14.4941 72.9639L18.9346 74.8906L17.1533 79.3906C16.4461 81.1773 16.0547 83.1305 16.0547 85.1875C16.0547 93.8904 23.1096 100.945 31.8125 100.945C33.8677 100.945 35.8203 100.553 37.6084 99.8457L42.1094 98.0645L44.0352 102.505C46.4628 108.101 52.0317 112 58.5 112C64.9678 112 70.536 108.101 72.9639 102.505L74.0146 100.082C74.5128 98.9343 75.7966 98.3467 76.9912 98.7188C78.3473 99.1413 79.0613 100.625 78.5449 101.948L77.5508 104.495C74.3589 111.853 67.0312 117 58.5 117C49.9686 117 42.64 111.853 39.4482 104.495C37.0847 105.431 34.5088 105.945 31.8125 105.945C20.3481 105.945 11.0547 96.6519 11.0547 85.1875C11.0547 82.491 11.5683 79.9144 12.5039 77.5508C5.14663 74.3587 0 67.0309 0 58.5C0 49.969 5.14644 42.6402 12.5039 39.4482C11.5685 37.0848 11.0547 34.5087 11.0547 31.8125C11.0547 20.3481 20.3481 11.0547 31.8125 11.0547C34.5087 11.0547 37.0848 11.5685 39.4482 12.5039C42.6402 5.14644 49.969 0 58.5 0C67.0309 0 74.3587 5.14663 77.5508 12.5039C79.9144 11.5683 82.491 11.0547 85.1875 11.0547C96.6519 11.0547 105.945 20.3481 105.945 31.8125C105.945 34.5088 105.431 37.0847 104.495 39.4482C111.853 42.64 117 49.9686 117 58.5C117 58.6671 116.997 58.8338 116.993 59H116.999C116.6 72.3435 108.25 83 98.0059 83C90.6854 82.9998 84.3337 77.5575 81.1582 69.582C76.981 77.5572 68.6271 83 59 83C45.1929 83 34 71.8071 34 58C34 44.1929 45.1929 33 59 33C67.1781 33 74.4389 36.927 79 42.998V35.5C79 34.1193 80.1193 33 81.5 33ZM59 38C47.9543 38 39 46.9543 39 58C39 69.0457 47.9543 78 59 78C70.0457 78 79 69.0457 79 58C79 46.9543 70.0457 38 59 38Z" fill="white"/>
</svg>
